<svg width="80" height="80" viewBox="0 0 80 80" fill="none" xmlns="http://www.w3.org/2000/svg">
<path d="M14.755 68.0025L9.14001 5H70.86L65.2375 67.9925L39.9625 75L14.755 68.0025Z" fill="#105140"/>
<path d="M40 69.645L60.425 63.9825L65.23 10.1525H40V69.645Z" fill="#105140"/>
<path d="M40 32.9775H50.225L50.93 25.065H40V17.3375H40.0275H59.375L59.19 19.41L57.2925 40.705H40V32.9775Z" fill="white"/>
<path d="M40.0475 53.045L40.0125 53.055L31.4075 50.73L30.8575 44.5675H26.675H23.1L24.1825 56.7L40.01 61.095L40.0475 61.085V53.045Z" fill="#EBEBEB"/>
<path d="M49.5675 40.3775L48.6375 50.725L40.02 53.05V61.09L55.86 56.7L55.9775 55.395L57.32 40.3775H49.5675Z" fill="white"/>
<path d="M40.0275 17.3375V22.1375V25.045V25.065H21.3875H21.3625L21.2075 23.3275L20.855 19.41L20.67 17.3375H40.0275Z" fill="#EBEBEB"/>
<path d="M40 32.9775V37.7775V40.685V40.705H31.5275H31.5025L31.3475 38.9675L30.9975 35.05L30.8125 32.9775H40Z" fill="#EBEBEB"/>
</svg>
