<svg width="26" height="26" viewBox="0 0 26 26" fill="none" xmlns="http://www.w3.org/2000/svg">
<path d="M10.5 19.9374L8.28748 22.0874C7.70732 22.6675 6.92045 22.9935 6.09998 22.9935C5.27951 22.9935 4.49264 22.6675 3.91248 22.0874C3.33232 21.5072 3.00639 20.7203 3.00639 19.8999C3.00639 19.0794 3.33232 18.2925 3.91248 17.7124L9.58748 12.0249C10.1445 11.466 10.895 11.1427 11.6837 11.1218C12.4725 11.1008 13.2391 11.3839 13.825 11.9124L13.975 12.0374C14.212 12.2694 14.5315 12.3978 14.8632 12.3943C15.1949 12.3908 15.5117 12.2557 15.7437 12.0186C15.9758 11.7816 16.1042 11.4621 16.1007 11.1304C16.0972 10.7987 15.962 10.4819 15.725 10.2499C15.6544 10.1587 15.5793 10.071 15.5 9.98737C14.4329 9.05901 13.0529 8.57093 11.6394 8.62199C10.226 8.67305 8.88477 9.25944 7.88748 10.2624L2.13748 15.9499C1.16042 17.0134 0.632004 18.4132 0.662572 19.8571C0.693139 21.3009 1.28033 22.6771 2.30152 23.6983C3.32271 24.7195 4.69893 25.3067 6.14279 25.3373C7.58664 25.3678 8.98649 24.8394 10.05 23.8624L12.2125 21.7499C12.426 21.5169 12.5434 21.2118 12.541 20.8958C12.5386 20.5798 12.4166 20.2765 12.1996 20.0468C11.9826 19.8171 11.6867 19.6781 11.3713 19.6578C11.056 19.6375 10.7446 19.7374 10.5 19.9374ZM23.8625 2.13737C22.811 1.09238 21.3887 0.505859 19.9062 0.505859C18.4238 0.505859 17.0015 1.09238 15.95 2.13737L13.7875 4.24987C13.574 4.48281 13.4566 4.78797 13.459 5.10396C13.4614 5.41994 13.5833 5.72329 13.8003 5.95298C14.0174 6.18267 14.3133 6.32164 14.6286 6.34194C14.944 6.36223 15.2553 6.26234 15.5 6.06237L17.6625 3.91237C18.2426 3.33221 19.0295 3.00628 19.85 3.00628C20.6705 3.00628 21.4573 3.33221 22.0375 3.91237C22.6176 4.49253 22.9436 5.2794 22.9436 6.09987C22.9436 6.92035 22.6176 7.70721 22.0375 8.28737L16.3625 13.9749C15.8055 14.5337 15.055 14.857 14.2662 14.878C13.4775 14.8989 12.7109 14.6159 12.125 14.0874L11.975 13.9624C11.7379 13.7303 11.4184 13.6019 11.0867 13.6054C10.755 13.6089 10.4383 13.7441 10.2062 13.9811C9.97416 14.2182 9.84577 14.5377 9.84928 14.8694C9.8528 15.2011 9.98794 15.5178 10.225 15.7499C10.3158 15.8427 10.4118 15.9304 10.5125 16.0124C11.5808 16.9379 12.9603 17.4242 14.3729 17.3732C15.7854 17.3221 17.1262 16.7376 18.125 15.7374L23.8125 10.0499C24.8641 9.00497 25.4597 7.58641 25.469 6.10393C25.4784 4.62146 24.9009 3.19549 23.8625 2.13737Z" fill="white"/>
</svg>
