<svg width="53" height="80" viewBox="0 0 53 80" fill="none" xmlns="http://www.w3.org/2000/svg">
<path d="M24.3478 0H12.1739C5.45043 0 0 5.45043 0 12.1739C0 18.8974 5.45043 24.3478 12.1739 24.3478H24.3478V0Z" fill="#105140"/>
<path d="M27.8261 0H40C46.7235 0 52.1739 5.45043 52.1739 12.1739C52.1739 18.8974 46.7235 24.3478 40 24.3478H27.8261V0Z" fill="#105140"/>
<path d="M24.3478 27.8262H12.1739C5.45043 27.8262 0 33.2766 0 40.0001C0 46.7236 5.45043 52.174 12.1739 52.174H24.3478V27.8262Z" fill="#105140"/>
<path d="M24.3478 55.6521H12.1739C5.45043 55.6521 0 61.1025 0 67.826C0 74.5495 5.45043 79.9999 12.1739 79.9999C18.8974 79.9999 24.3478 74.5495 24.3478 67.826V55.6521Z" fill="#105140"/>
<path d="M40 52.174C46.7235 52.174 52.1739 46.7236 52.1739 40.0001C52.1739 33.2766 46.7235 27.8262 40 27.8262C33.2765 27.8262 27.8261 33.2766 27.8261 40.0001C27.8261 46.7236 33.2765 52.174 40 52.174Z" fill="#105140"/>
</svg>
