<svg width="80" height="80" viewBox="0 0 80 80" fill="none" xmlns="http://www.w3.org/2000/svg">
<path d="M78.4914 36.4362L43.5626 1.5087C41.5523 -0.5029 38.2898 -0.5029 36.2769 1.5087L29.0238 8.76196L38.2248 17.9631C40.3629 17.2406 42.8148 17.7253 44.5191 19.4297C46.2316 21.145 46.7129 23.6179 45.9729 25.7629L54.8401 34.6306C56.9854 33.8915 59.4607 34.3696 61.1742 36.0859C63.5689 38.4797 63.5689 42.3595 61.1742 44.7548C58.7789 47.1505 54.8992 47.1505 52.5026 44.7548C50.7013 42.9517 50.2563 40.3063 51.1682 38.0872L42.8988 29.8177L42.8979 51.5796C43.4974 51.876 44.0449 52.2676 44.5191 52.739C46.9138 55.1328 46.9138 59.0129 44.5191 61.4101C42.1238 63.8045 38.2423 63.8045 35.8504 61.4101C33.4557 59.0129 33.4557 55.1331 35.8504 52.7393C36.4243 52.1652 37.1063 51.7105 37.8569 51.4015V29.4367C37.1052 29.1298 36.4228 28.6749 35.8504 28.0989C34.036 26.287 33.5998 23.6247 34.5294 21.3969L25.4594 12.3258L1.50938 36.2747C-0.503126 38.2881 -0.503126 41.551 1.50938 43.5629L36.4388 78.4911C38.4498 80.503 41.7116 80.503 43.7251 78.4911L78.4911 43.7251C80.503 41.7126 80.5033 38.4478 78.4914 36.4362Z" fill="#105140"/>
</svg>
