<svg width="53" height="77" viewBox="0 0 53 77" fill="none" xmlns="http://www.w3.org/2000/svg">
<path fill-rule="evenodd" clip-rule="evenodd" d="M28.9479 23.8576C29.1658 16.9242 26.8362 12.8365 20.139 10.1363C18.2354 16.812 26.0942 22.9673 28.9479 23.8576Z" fill="#105140" stroke="black" stroke-width="1.76753" stroke-linejoin="round"/>
<path fill-rule="evenodd" clip-rule="evenodd" d="M40.1101 23.6079C40.328 17.9146 38.8938 15.6168 37.8173 13.9737C36.7252 12.441 34.1046 10.0321 30.8849 9.93116C27.84 9.83551 27.1077 11.5229 24.2987 11.6247C23.8382 6.49647 27.6987 3.6823 27.6987 3.6823C27.6987 3.6823 26.6431 2.18651 25.7698 1.82104C24.5137 2.94016 21.0563 6.673 21.8563 11.4765C19.2717 10.9812 17.4473 9.49809 14.7322 10.0336C11.0334 10.7633 7.98446 13.0054 6.24665 17.9253C4.50913 22.8454 6.85998 28.5853 7.37113 30.2246C7.88259 31.8653 11.6653 38.8339 14.6301 39.8594C17.5942 40.8853 17.5951 40.423 19.1798 39.8084C20.7648 39.1934 23.1666 38.0661 26.6946 39.3475C30.2206 40.6284 30.6805 40.9354 32.878 39.5007C35.0772 38.0664 37.9389 33.6079 38.6029 32.3264C39.2674 31.0455 39.6255 30.379 39.8307 29.713C41.9672 28.6441 39.914 28.7102 40.1101 23.6079Z" fill="#105140" stroke="black" stroke-width="1.76753" stroke-linejoin="round"/>
<path d="M45.8491 65.2168C46.5467 65.2192 47.2378 65.0837 47.883 64.8178C48.5282 64.5519 49.1146 64.1609 49.6088 63.6673C50.1029 63.1737 50.495 62.5872 50.7626 61.9413C51.0301 61.2955 51.1679 60.603 51.168 59.9037C51.1686 54.5094 51.1686 46.1738 51.1686 40.7648C51.1686 39.3555 50.6102 38.004 49.6162 37.0075C48.6223 36.011 47.2742 35.4512 45.8686 35.4512H41.4996C41.1872 35.4512 40.8876 35.3267 40.6668 35.1053C40.4459 34.8838 40.3218 34.5835 40.3218 34.2703V31.4866H5.86298L5.94984 72.2875C5.95026 72.4855 6.00038 72.6804 6.09556 72.8539C6.19075 73.0275 6.32796 73.1743 6.49456 73.2808C8.0292 74.1717 12.9491 75.8638 23.2791 75.8638C33.8275 75.8638 38.5428 73.5984 39.8928 72.5756C40.0253 72.4653 40.1319 72.3272 40.2051 72.171C40.2783 72.0147 40.3162 71.8443 40.3162 71.6717C40.3218 70.5425 40.3218 67.9261 40.3218 66.3804C40.3218 66.2233 40.353 66.0677 40.4137 65.9229C40.4745 65.778 40.5634 65.6468 40.6754 65.5368C40.7874 65.4269 40.9201 65.3404 41.0658 65.2826C41.2116 65.2247 41.3673 65.1966 41.524 65.1999C42.8199 65.2182 44.3725 65.2209 45.8491 65.2168ZM40.3218 41.6578C40.3218 41.2664 40.477 40.8909 40.7529 40.614C41.0291 40.3373 41.4036 40.1818 41.794 40.1818H45.5447C45.9351 40.1818 46.3096 40.3373 46.5858 40.614C46.8618 40.8909 47.0168 41.2663 47.0169 41.6578V58.8342C47.0168 59.2256 46.8618 59.6011 46.5858 59.878C46.3096 60.1547 45.9351 60.3101 45.5447 60.3102H41.794C41.4036 60.3101 41.0291 60.1547 40.7529 59.878C40.4769 59.6011 40.3219 59.2256 40.3218 58.8342V41.6578Z" fill="white" stroke="black" stroke-width="1.76753" stroke-linejoin="round"/>
<path fill-rule="evenodd" clip-rule="evenodd" d="M9.26001 31.1441V67.7451C9.26001 68.1676 9.48497 68.5578 9.84978 68.7686C11.34 69.4806 15.663 71.1801 23.2423 71.1801C30.8719 71.1801 35.0666 69.1152 36.4711 68.2641C36.6361 68.1575 36.7718 68.011 36.8658 67.8382C36.9598 67.6654 37.009 67.4717 37.009 67.2749C37.0123 62.4214 37.0123 31.1441 37.0123 31.1441H9.26001Z" fill="#FBB040"/>
<path d="M13.3392 37.3435V65.6286" stroke="#FFDB96" stroke-width="4.06719" stroke-linecap="round"/>
<path fill-rule="evenodd" clip-rule="evenodd" d="M29.019 38.655C29.019 38.0646 28.6724 37.3596 28.1032 37.0057C27.17 36.4384 26.4511 35.5766 26.0592 34.5555C18.5241 34.8097 11.6464 33.483 8.1817 32.5463C7.29213 32.2936 6.39098 32.0837 5.48135 31.9176C3.40758 31.5052 1.83142 29.6793 1.83142 27.4842C1.83142 25.068 3.74354 23.1046 6.13267 23.0187C6.59347 20.4631 8.81829 18.523 11.5001 18.523C14.5158 18.523 16.9603 20.9744 16.9603 23.9976C16.9603 24.6337 16.8457 25.2427 16.647 25.8113L16.6632 25.8139C17.3366 23.7023 19.3082 22.1723 21.6381 22.1723C23.953 22.1723 25.914 23.6843 26.5989 25.7761C26.579 25.5852 26.5691 25.3934 26.5692 25.2014C26.5692 22.0569 29.1114 19.5081 32.2472 19.5081C34.7859 19.5081 36.9345 21.1787 37.6615 23.4821L38.1564 23.3528C38.8239 22.9743 39.5779 22.7754 40.3448 22.7757C42.809 22.7757 44.8068 24.7787 44.8059 27.2486C44.8059 29.5116 43.1302 31.3818 40.9548 31.6802C40.4622 31.7502 39.9791 31.8759 39.5147 32.0551C38.2218 32.5437 36.8998 32.9487 35.5642 33.2829C35.4994 33.9271 35.3084 34.5522 35.0021 35.1223C34.4603 36.1415 34.2173 37.2936 34.3013 38.4454C34.3007 38.515 34.3033 38.8799 34.3033 38.9502C34.3033 40.4132 33.1209 41.3035 31.6604 41.3035C31.3135 41.3035 30.97 41.235 30.6495 41.1019C30.329 40.9688 30.0378 40.7737 29.7925 40.5278C29.5472 40.2818 29.3527 39.9898 29.2199 39.6685C29.0872 39.3472 29.0189 39.0028 29.019 38.655Z" fill="white" stroke="black" stroke-width="1.76753" stroke-linecap="round" stroke-linejoin="round"/>
</svg>
