<svg width="80" height="80" viewBox="0 0 80 80" fill="none" xmlns="http://www.w3.org/2000/svg">
<path d="M14.755 68.0025L9.13751 5H70.8625L65.2375 67.9925L39.9625 75L14.755 68.0025Z" fill="#105140"/>
<path d="M40 69.645L60.425 63.9825L65.23 10.1525H40V69.645Z" fill="#105140"/>
<path d="M40 33.5175H29.775L29.07 25.605H40V17.8775H39.9725H20.625L20.81 19.9525L22.7075 41.245H40V33.5175Z" fill="#EBEBEB"/>
<path d="M40 53.585L39.965 53.595L31.36 51.2725L30.81 45.11H26.6275H23.0525L24.135 57.24L39.965 61.635L40 61.625V53.585Z" fill="#EBEBEB"/>
<path d="M39.9725 33.5175V41.245H49.4875L48.5925 51.2675L39.9725 53.5925V61.6325L55.815 57.24L55.93 55.935L57.745 35.5925L57.935 33.5175H55.8525H39.9725Z" fill="white"/>
<path d="M39.9725 17.8775V22.6775V25.5875V25.605H58.6125H58.6375L58.7925 23.87L59.145 19.9525L59.33 17.8775H39.9725Z" fill="white"/>
</svg>
