<svg width="32" height="33" viewBox="0 0 32 33" fill="none" xmlns="http://www.w3.org/2000/svg">
<path d="M15.9011 8.61527C11.4123 8.61527 7.7897 12.238 7.7897 16.7268C7.7897 21.2156 11.4123 24.8383 15.9011 24.8383C20.3898 24.8383 24.0124 21.2156 24.0124 16.7268C24.0124 12.238 20.3898 8.61527 15.9011 8.61527ZM15.9011 21.9987C12.9982 21.9987 10.6293 19.6297 10.6293 16.7268C10.6293 13.8239 12.9982 11.4549 15.9011 11.4549C18.8039 11.4549 21.1728 13.8239 21.1728 16.7268C21.1728 19.6297 18.8039 21.9987 15.9011 21.9987ZM24.3446 6.39261C23.2966 6.39261 22.4503 7.23896 22.4503 8.28701C22.4503 9.33506 23.2966 10.1814 24.3446 10.1814C25.3926 10.1814 26.239 9.33901 26.239 8.28701C26.2393 8.03815 26.1905 7.79167 26.0954 7.56169C26.0003 7.33171 25.8608 7.12274 25.6848 6.94677C25.5089 6.7708 25.2999 6.63127 25.0699 6.53618C24.84 6.44108 24.5935 6.3923 24.3446 6.39261ZM31.7125 16.7268C31.7125 14.5437 31.7322 12.3803 31.6096 10.2012C31.487 7.67004 30.9096 5.42366 29.0588 3.57276C27.204 1.71791 24.9616 1.14445 22.4305 1.02185C20.2474 0.899248 18.0841 0.919023 15.905 0.919023C13.7219 0.919023 11.5587 0.899248 9.37954 1.02185C6.84845 1.14445 4.6021 1.72187 2.75124 3.57276C0.896427 5.42761 0.322976 7.67004 0.200376 10.2012C0.0777766 12.3843 0.0975509 14.5476 0.0975509 16.7268C0.0975509 18.9059 0.0777766 21.0732 0.200376 23.2524C0.322976 25.7835 0.900382 28.0299 2.75124 29.8808C4.60606 31.7356 6.84845 32.3091 9.37954 32.4317C11.5626 32.5543 13.7259 32.5345 15.905 32.5345C18.0881 32.5345 20.2514 32.5543 22.4305 32.4317C24.9616 32.3091 27.2079 31.7317 29.0588 29.8808C30.9136 28.0259 31.487 25.7835 31.6096 23.2524C31.7362 21.0732 31.7125 18.9099 31.7125 16.7268ZM28.2322 26.0524C27.9435 26.7722 27.5955 27.3101 27.0379 27.8638C26.4802 28.4214 25.9463 28.7695 25.2265 29.0582C23.1463 29.8847 18.2067 29.6989 15.9011 29.6989C13.5954 29.6989 8.65185 29.8847 6.57161 29.0621C5.85183 28.7734 5.31397 28.4254 4.7603 27.8677C4.20267 27.3101 3.85464 26.7762 3.56594 26.0564C2.74333 23.9722 2.92921 19.0325 2.92921 16.7268C2.92921 14.4211 2.74333 9.47744 3.56594 7.39716C3.85464 6.67736 4.20267 6.1395 4.7603 5.58581C5.31793 5.03212 5.85183 4.68014 6.57161 4.39143C8.65185 3.56881 13.5954 3.75469 15.9011 3.75469C18.2067 3.75469 23.1503 3.56881 25.2305 4.39143C25.9503 4.68014 26.4881 5.02817 27.0418 5.58581C27.5994 6.14345 27.9475 6.67736 28.2362 7.39716C29.0588 9.47744 28.8729 14.4211 28.8729 16.7268C28.8729 19.0325 29.0588 23.9722 28.2322 26.0524Z" fill="white"/>
</svg>
