<svg width="30" height="30" viewBox="0 0 30 30" fill="none" xmlns="http://www.w3.org/2000/svg">
<path d="M7.21113 3.5063C7.21113 3.99202 7.11467 4.47247 6.92786 4.91725C6.74105 5.36203 6.46795 5.76147 6.12582 6.09031C5.78369 6.41915 5.37998 6.67023 4.94022 6.82769C4.50046 6.98514 4.03422 7.04554 3.57097 7.00506H3.52722C3.06908 7.02977 2.61097 6.95603 2.18119 6.78839C1.75142 6.62075 1.35912 6.36277 1.02855 6.03042C0.697984 5.69806 0.436176 5.29839 0.259312 4.85611C0.0824492 4.41383 -0.0057096 3.93835 0.000286571 3.45905C0.00628274 2.97976 0.106306 2.50684 0.294174 2.06954C0.482041 1.63224 0.753758 1.23986 1.09253 0.916645C1.43129 0.593433 1.82991 0.346263 2.26373 0.190418C2.69756 0.0345733 3.15736 -0.0266352 3.61472 0.0105788C4.0747 -0.025561 4.53686 0.0380784 4.97217 0.1975C5.40748 0.356921 5.80654 0.60868 6.14428 0.936962C6.48201 1.26524 6.75113 1.66295 6.93473 2.10511C7.11832 2.54727 7.21242 3.02432 7.21113 3.5063ZM0.34792 9.76933H6.78236V29.997H0.34792V9.76933ZM29.9971 18.3943V29.997H23.5626V19.1776C23.5626 16.456 22.6322 14.5999 20.2958 14.5999C19.5713 14.6068 18.8663 14.8465 18.2766 15.2865C17.6869 15.7265 17.2412 16.3455 16.9999 17.0594C16.835 17.5882 16.7629 18.1436 16.7869 18.6991V30H10.3467C10.3467 30 10.4342 11.662 10.3467 9.76628H16.7928V12.6311L16.7461 12.7012H16.7899V12.625C17.3726 11.5679 18.2216 10.6979 19.2444 10.1095C20.2672 9.52112 21.4248 9.23693 22.5914 9.2878C26.8236 9.2878 29.9971 12.1801 29.9971 18.3943Z" fill="white"/>
</svg>
