<svg width="103" height="70" viewBox="0 0 103 70" fill="none" xmlns="http://www.w3.org/2000/svg">
<path d="M57.3351 70H95.3272C96.5339 70.0002 97.7194 69.6768 98.7644 69.0623C99.8094 68.4479 100.677 67.5642 101.28 66.4998C101.883 65.4357 102.201 64.2283 102.2 62.9997C102.199 61.771 101.881 60.564 101.277 59.5003L75.7627 14.5003C75.1598 13.4363 74.2922 12.5527 73.2474 11.9384C72.2026 11.3241 71.0174 11.0007 69.811 11.0007C68.6045 11.0007 67.4193 11.3241 66.3745 11.9384C65.3297 12.5527 64.4621 13.4363 63.859 14.5003L57.3351 26.0143L44.5798 3.49918C43.9762 2.43525 43.1083 1.55178 42.0631 0.93758C41.0181 0.323347 39.8328 0 38.626 0C37.4193 0 36.234 0.323347 35.1888 0.93758C34.1438 1.5518 33.2758 2.43525 32.6723 3.49918L0.922816 59.5003C0.318813 60.564 0.000511616 61.771 6.16372e-07 62.9997C-0.000510384 64.2283 0.316718 65.4357 0.919818 66.4998C1.52292 67.5642 2.39061 68.4479 3.43562 69.0623C4.48064 69.6768 5.66612 70.0002 6.87283 70H30.7212C40.1701 70 47.1382 65.7738 51.9331 57.5285L63.574 37.0002L69.8091 26.0143L88.5219 59.0138H63.574L57.3351 70ZM30.3323 59.0027L13.6893 58.9988L38.6372 15.0018L51.0852 37.0002L42.7508 51.7038C39.5666 57.0535 35.949 59.0027 30.3323 59.0027Z" fill="#105140"/>
</svg>
