<svg width="81" height="80" viewBox="0 0 81 80" fill="none" xmlns="http://www.w3.org/2000/svg">
<path d="M40.5 47.0531C44.3597 47.0531 47.4887 43.8953 47.4887 40.0001C47.4887 36.1048 44.3597 32.9471 40.5 32.9471C36.6403 32.9471 33.5114 36.1048 33.5114 40.0001C33.5114 43.8953 36.6403 47.0531 40.5 47.0531Z" fill="#105140"/>
<path d="M40.5 54.4501C61.2107 54.4501 78 47.9806 78 40.0001C78 32.0195 61.2107 25.55 40.5 25.55C19.7893 25.55 3 32.0195 3 40.0001C3 47.9806 19.7893 54.4501 40.5 54.4501Z" stroke="#105140" stroke-width="5"/>
<path d="M28.1001 47.225C38.4554 65.3261 52.4017 76.7652 59.25 72.775C66.0982 68.7847 63.2552 50.8761 52.8999 32.775C42.5445 14.6739 28.5982 3.23475 21.75 7.22501C14.9017 11.2153 17.7447 29.1239 28.1001 47.225Z" stroke="#105140" stroke-width="5"/>
<path d="M28.1001 32.775C17.7447 50.8761 14.9017 68.7847 21.75 72.775C28.5983 76.7652 42.5446 65.3261 52.8999 47.225C63.2552 29.1239 66.0983 11.2153 59.25 7.225C52.4017 3.23474 38.4554 14.6738 28.1001 32.775Z" stroke="#105140" stroke-width="5"/>
</svg>
