<svg width="80" height="80" viewBox="0 0 80 80" fill="none" xmlns="http://www.w3.org/2000/svg">
<path d="M71.72 5H8.28C6.46851 5 5 6.46851 5 8.28V71.72C5 73.5315 6.46851 75 8.28 75H71.72C73.5315 75 75 73.5315 75 71.72V8.28C75 6.46851 73.5315 5 71.72 5Z" fill="#105140"/>
<path fill-rule="evenodd" clip-rule="evenodd" d="M45.6125 59.3975V67.0675C47.0061 67.7553 48.4912 68.2394 50.0225 68.505C51.792 68.8317 53.5881 68.9924 55.3875 68.985C57.1412 68.9933 58.8909 68.8165 60.6075 68.4575C62.1487 68.1461 63.6192 67.5528 64.945 66.7075C66.1758 65.913 67.1903 64.8255 67.8975 63.5425C69.164 60.8858 69.3311 57.8367 68.3625 55.0575C67.9537 54.0182 67.3447 53.0694 66.57 52.265C65.7384 51.4097 64.7938 50.672 63.7625 50.0725C62.5751 49.3771 61.3414 48.764 60.07 48.2375C59.07 47.8225 58.17 47.4192 57.37 47.0275C56.6594 46.6873 55.9794 46.2867 55.3375 45.83C54.8347 45.4775 54.398 45.0391 54.0475 44.535C53.7446 44.0773 53.5869 43.5388 53.595 42.99C53.5883 42.4849 53.729 41.9888 54 41.5625C54.2942 41.1163 54.6868 40.7435 55.1475 40.4725C55.7107 40.1409 56.3235 39.902 56.9625 39.765C57.747 39.5907 58.5489 39.5068 59.3525 39.515C60.0283 39.5173 60.7032 39.5658 61.3725 39.66C62.0952 39.7577 62.8103 39.9056 63.5125 40.1025C64.2267 40.3005 64.9253 40.5512 65.6025 40.8525C66.2596 41.1454 66.8881 41.4986 67.48 41.9075V34.75C66.2478 34.2838 64.9699 33.9486 63.6675 33.75C62.0947 33.5212 60.5067 33.4133 58.9175 33.4275C57.1803 33.4181 55.4481 33.6154 53.7575 34.015C52.2293 34.3642 50.7763 34.9849 49.4675 35.8475C48.2517 36.6574 47.2478 37.747 46.54 39.025C45.7899 40.4442 45.4188 42.0329 45.4625 43.6375C45.4071 45.7595 46.106 47.8323 47.435 49.4875C49.0654 51.3227 51.1214 52.7297 53.4225 53.585C54.4725 54.0183 55.4516 54.4425 56.36 54.8575C57.1795 55.2222 57.9672 55.6545 58.715 56.15C59.3181 56.5423 59.8478 57.0373 60.28 57.6125C60.66 58.1342 60.8617 58.7646 60.855 59.41C60.8584 59.8937 60.7342 60.3697 60.495 60.79C60.2291 61.2417 59.8555 61.6205 59.4075 61.8925C58.8469 62.2343 58.2336 62.4809 57.5925 62.6225C56.7573 62.8092 55.9032 62.8973 55.0475 62.885C53.3682 62.8819 51.7024 62.5858 50.125 62.01C48.477 61.4153 46.9488 60.5305 45.6125 59.3975ZM32.7275 40.3025H42.7275V33.985H14.845V40.3025H24.8V68.4375H32.7275V40.3025Z" fill="white"/>
</svg>
