<svg width="80" height="80" viewBox="0 0 80 80" fill="none" xmlns="http://www.w3.org/2000/svg">
<path d="M79.7353 11.8408L42.1553 78.9558C41.3793 80.3415 39.3859 80.3496 38.5984 78.9707L0.273337 11.847C-0.584789 10.3445 0.701775 8.52432 2.40678 8.82894L40.0271 15.5446C40.2672 15.5874 40.5129 15.587 40.7528 15.5433L77.5862 8.8383C79.2856 8.529 80.5781 10.3352 79.7353 11.8408V11.8408Z" fill="url(#paint0_linear_84_107)"/>
<path d="M57.9476 0.0196966L30.1375 5.46224C29.9153 5.50572 29.7138 5.62172 29.5648 5.792C29.4158 5.96228 29.3277 6.17719 29.3144 6.40294L27.6037 35.2592C27.5943 35.4175 27.622 35.5758 27.6845 35.7215C27.747 35.8672 27.8427 35.9964 27.964 36.0987C28.0852 36.201 28.2287 36.2737 28.383 36.311C28.5372 36.3483 28.6981 36.3492 28.8528 36.3135L36.5956 34.5289C37.32 34.3619 37.9747 34.9992 37.8256 35.7268L35.5253 46.9773C35.3706 47.7345 36.0822 48.3818 36.8225 48.1571L41.605 46.7061C42.3463 46.4814 43.0588 47.1306 42.9019 47.8884L39.2463 65.5603C39.0175 66.6657 40.4897 67.2684 41.1034 66.3209L41.5138 65.6879L64.1751 20.5196C64.5548 19.7634 63.9001 18.901 63.0688 19.0614L55.0985 20.5976C54.3497 20.7418 53.7125 20.0452 53.9238 19.3136L59.1257 1.3034C59.3372 0.569944 58.6976 -0.126994 57.9479 0.0196966H57.9476Z" fill="url(#paint1_linear_84_107)"/>
<defs>
<linearGradient id="paint0_linear_84_107" x1="-0.6624" y1="14.2438" x2="39.8013" y2="69.2662" gradientUnits="userSpaceOnUse">
<stop stop-color="#105140"/>
<stop offset="1" stop-color="#24B791"/>
</linearGradient>
<linearGradient id="paint1_linear_84_107" x1="43.5138" y1="1.49746" x2="51.8311" y2="58.6238" gradientUnits="userSpaceOnUse">
<stop stop-color="#FFEA83"/>
<stop offset="0.083" stop-color="#FFDD35"/>
<stop offset="1" stop-color="#FFA800"/>
</linearGradient>
</defs>
</svg>
