<svg width="70" height="70" viewBox="0 0 70 70" fill="none" xmlns="http://www.w3.org/2000/svg">
<path d="M67.5312 7.37267L53.1162 0.432669C52.3021 0.0401639 51.3861 -0.0893629 50.4952 0.0620436C49.6042 0.21345 48.7824 0.63829 48.1437 1.27767L0.956176 44.2977C0.383653 44.8172 0.0409431 45.5428 0.00343608 46.315C-0.034071 47.0872 0.236696 47.8426 0.756175 48.4152C0.818675 48.4827 0.881176 48.5477 0.948676 48.6077L4.80118 52.1077C5.30458 52.5658 5.95257 52.8332 6.63259 52.8633C7.31261 52.8935 7.98171 52.6845 8.52368 52.2727L65.3612 9.17267C65.7905 8.8469 66.3022 8.64743 66.8387 8.59671C67.3753 8.54599 67.9153 8.64604 68.398 8.8856C68.8808 9.12515 69.2871 9.4947 69.5712 9.95265C69.8553 10.4106 70.006 10.9388 70.0062 11.4777V11.3102C70.0061 10.4874 69.7738 9.6814 69.336 8.98483C68.8981 8.28826 68.2726 7.72944 67.5312 7.37267Z" fill="#105140"/>
<path d="M67.5312 62.2227L53.1162 69.1652C52.3019 69.5566 51.3861 69.6855 50.4954 69.5342C49.6047 69.3828 48.783 68.9586 48.1437 68.3202L0.956176 25.2977C0.383653 24.7782 0.0409431 24.0526 0.00343608 23.2804C-0.034071 22.5082 0.236696 21.7528 0.756175 21.1802C0.818675 21.1127 0.881176 21.0477 0.948676 20.9877L4.80118 17.4877C5.30509 17.0276 5.95456 16.7591 6.63626 16.7289C7.31796 16.6988 7.9886 16.9089 8.53118 17.3227L65.3612 60.4227C65.7905 60.7485 66.3022 60.948 66.8387 60.9987C67.3753 61.0494 67.9153 60.9494 68.398 60.7098C68.8808 60.4702 69.2871 60.1007 69.5712 59.6427C69.8553 59.1848 70.006 58.6566 70.0062 58.1177V58.2977C70.0035 59.1183 69.77 59.9215 69.3323 60.6156C68.8946 61.3097 68.2705 61.8666 67.5312 62.2227Z" fill="#168D63"/>
<path d="M53.1162 69.1653C52.3019 69.5567 51.3861 69.6856 50.4954 69.5343C49.6047 69.3829 48.783 68.9587 48.1437 68.3203C48.5027 68.6746 48.9583 68.9151 49.4534 69.0117C49.9485 69.1082 50.4611 69.0564 50.9269 68.8629C51.3927 68.6693 51.791 68.3426 52.072 67.9237C52.3529 67.5048 52.5039 67.0122 52.5062 66.5078V3.08782C52.5066 2.58105 52.3566 2.08554 52.0752 1.66409C51.7937 1.24263 51.3936 0.914187 50.9253 0.720356C50.4571 0.526525 49.9418 0.476032 49.4449 0.575272C48.9479 0.674513 48.4916 0.919021 48.1337 1.27782C48.7725 0.638677 49.5941 0.213811 50.4849 0.0619833C51.3757 -0.0898439 52.2917 0.0388701 53.1062 0.430324L67.5187 7.36032C68.2624 7.71532 68.8905 8.27337 69.3307 8.97008C69.7708 9.66678 70.005 10.4737 70.0062 11.2978V58.2978C70.0064 59.1213 69.7739 59.928 69.3356 60.6251C68.8972 61.3222 68.2709 61.8812 67.5287 62.2378L53.1162 69.1653Z" fill="#1A9A75"/>
</svg>
