<svg xmlns="http://www.w3.org/2000/svg" version="1.1" xmlns:xlink="http://www.w3.org/1999/xlink" width="512" height="512" x="0" y="0" viewBox="0 0 512 512" style="enable-background:new 0 0 512 512" xml:space="preserve" class=""><g><path d="M512 381.523c0 28.077-22.297 50.374-49.548 50.374H49.548C22.297 431.897 0 409.6 0 381.523V130.477C0 102.4 22.297 80.103 49.548 80.103h412.903c27.252 0 49.548 22.297 49.548 50.374v251.046z" style="" fill="#009b3a" data-original="#009b3a"></path><path d="M49.548 80.103h412.903c27.252 0 49.548 22.297 49.548 50.374v251.045c0 28.077-22.297 50.374-49.548 50.374" style="" fill="#007c29" data-original="#007c29"></path><path d="M49.548 80.103h412.903c27.252 0 49.548 22.297 49.548 50.374v91.665M512 381.523c0 28.077-22.297 50.374-49.548 50.374H49.548C22.297 431.897 0 409.6 0 381.523" style="" fill="#006d21" data-original="#006d21" class=""></path><path d="M31.381 256 256 399.69 480.619 256 256 112.31 31.381 256z" style="" fill="#fedf00" data-original="#fedf00" class=""></path><path d="m256 399.69 28.077-18.167h-56.154zM159.381 174.245l193.238 163.51 128-81.755L256 112.31z" style="" fill="#fcc000" data-original="#fcc000"></path><circle cx="256" cy="256" r="94.968" style="" fill="#002776" data-original="#002776" class=""></circle><path d="M256 161.032c-28.903 0-54.503 13.213-71.845 33.032L328.671 317.11c14.039-16.516 22.297-37.987 22.297-61.11 0-52.026-42.942-94.968-94.968-94.968z" style="" fill="#021e47" data-original="#021e47"></path><path d="M168.969 217.951a94.255 94.255 0 0 0-5.089 14.897 218.354 218.354 0 0 1 39.268-3.274c55.192 0 105.461 20.538 143.63 54.395a94.411 94.411 0 0 0 3.273-14.78c-40.006-33.48-91.525-53.653-147.73-53.653a231.912 231.912 0 0 0-33.352 2.415z" style="" fill="#ffffff" data-original="#ffffff" class=""></path></g></svg>