<svg xmlns="http://www.w3.org/2000/svg" version="1.1" xmlns:xlink="http://www.w3.org/1999/xlink" width="512" height="512" x="0" y="0" viewBox="0 0 32 32" style="enable-background:new 0 0 512 512" xml:space="preserve" class=""><g><path fill="#efefef" d="M27 10c0-1.1-.9-2-2-2h-8v2z" opacity="1" data-original="#efefef" class=""></path><path fill="#ed1c24" d="M17 10h10v4H17z" opacity="1" data-original="#ed1c24" class=""></path><path fill="#efefef" d="M17 14h10v2H17z" opacity="1" data-original="#efefef" class=""></path><path fill="#ed1c24" d="M5 16h22v4H5z" opacity="1" data-original="#ed1c24" class=""></path><path fill="#efefef" d="M5 20h22v2H5z" opacity="1" data-original="#efefef" class=""></path><path fill="#ed1c24" d="M5 22c0 1.1.9 2 2 2h18c1.1 0 2-.9 2-2z" opacity="1" data-original="#ed1c24" class=""></path><path d="M25 24c1.1 0 2-.9 2-2V10c0-1.1-.9-2-2-2h-2c.1.2 4.6 7.7 0 16" opacity="1" fill="#00000030" data-original="#00000030" class=""></path><path fill="#3471ea" d="M17 10V8H7c-1.1 0-2 .9-2 2v6h12v-2z" opacity="1" data-original="#3471ea"></path><g fill="#efefef"><path d="m7.743 10.258.499.262-.096-.555.404-.394-.558-.081-.249-.505-.249.505-.558.081.403.394-.095.555zM10.983 10.258l.499.262-.095-.555.403-.394-.558-.081-.249-.505-.249.505-.558.081.404.394-.096.555zM14.223 10.258l.499.262-.095-.555.403-.394-.558-.081-.249-.505-.249.505-.558.081.403.394-.095.555zM7.743 12.463l.499.262-.096-.555.404-.394-.558-.081-.249-.505-.249.505-.558.081.403.394-.095.555zM10.983 12.463l.499.262-.095-.555.403-.394-.558-.081-.249-.505-.249.505-.558.081.404.394-.096.555zM14.223 12.463l.499.262-.095-.555.403-.394-.558-.081-.249-.505-.249.505-.558.081.403.394-.095.555zM7.743 14.668l.499.262-.096-.555.404-.394-.558-.081-.249-.505-.249.505-.558.081.403.394-.095.555zM10.983 14.668l.499.262-.095-.555.403-.394-.558-.081-.249-.505-.249.505-.558.081.404.394-.096.555zM14.223 14.668l.499.262-.095-.555.403-.394-.558-.081-.249-.505-.249.505-.558.081.403.394-.095.555z" fill="#efefef" opacity="1" data-original="#efefef" class=""></path></g></g></svg>