<svg width="500" height="500" viewBox="0 0 500 500" fill="none" xmlns="http://www.w3.org/2000/svg">
<path d="M90.72 374.39C174.51 418.16 310.35 418.16 394.13 374.39C477.91 330.62 477.92 259.65 394.13 215.88C310.34 172.11 174.5 172.11 90.72 215.88C6.94001 259.65 6.93 330.62 90.72 374.39Z" fill="#FAFAFA"/>
<path d="M291.83 315.13C272.12 326.5 272.12 344.95 291.83 356.33C311.54 367.71 343.48 367.71 363.19 356.33C382.9 344.95 382.89 326.5 363.19 315.13C343.49 303.76 311.53 303.75 291.83 315.13Z" fill="#EBEBEB"/>
<path d="M84.31 152.03L137.11 135.61L96.49 163.75L84.31 152.03Z" fill="#105140"/>
<path d="M137.11 135.61L80.24 144.99L68.06 133.26L137.11 135.61Z" fill="#105140"/>
<path d="M80.24 144.99V159.06L84.31 152.03L137.11 135.61L80.24 144.99Z" fill="#455A64"/>
<path d="M80.24 159.06L88.37 155.94L84.31 152.03L80.24 159.06Z" fill="#105140"/>
<path d="M84.31 152.03L88.37 155.94L87.07 156.43L84.31 152.03Z" fill="#455A64"/>
<path d="M71.49 156.94C71.3219 156.943 71.1575 156.89 71.0234 156.788C70.8893 156.687 70.7932 156.543 70.7505 156.381C70.7079 156.218 70.7211 156.046 70.7881 155.891C70.8551 155.737 70.972 155.61 71.12 155.53C72.02 155.03 72.93 154.53 73.83 154.14C73.9192 154.092 74.0174 154.062 74.1184 154.053C74.2194 154.044 74.3213 154.055 74.4179 154.086C74.5144 154.117 74.6036 154.168 74.68 154.235C74.7565 154.301 74.8186 154.383 74.8626 154.474C74.9066 154.566 74.9316 154.665 74.9361 154.767C74.9406 154.868 74.9245 154.969 74.8887 155.064C74.8529 155.159 74.7983 155.246 74.728 155.319C74.6578 155.392 74.5734 155.45 74.48 155.49C73.61 155.91 72.72 156.36 71.85 156.85C71.7387 156.908 71.6154 156.939 71.49 156.94Z" fill="#E0E0E0"/>
<path d="M62.26 237.7C62.1068 237.702 61.9567 237.656 61.83 237.57C60.2036 236.424 58.6629 235.16 57.22 233.79C57.1286 233.731 57.0512 233.652 56.9932 233.56C56.9352 233.467 56.8981 233.364 56.8843 233.255C56.8706 233.147 56.8806 233.037 56.9136 232.934C56.9467 232.83 57.002 232.734 57.0757 232.654C57.1494 232.574 57.2397 232.51 57.3404 232.468C57.441 232.427 57.5496 232.407 57.6585 232.412C57.7675 232.416 57.8741 232.444 57.9711 232.494C58.0681 232.544 58.153 232.614 58.22 232.7C59.6118 234.021 61.0991 235.238 62.67 236.34C62.7995 236.433 62.8961 236.564 62.9459 236.715C62.9958 236.866 62.9962 237.03 62.9473 237.181C62.8983 237.332 62.8023 237.464 62.6734 237.558C62.5445 237.651 62.3892 237.701 62.23 237.7H62.26ZM54.42 230.42C54.3093 230.421 54.1997 230.398 54.0993 230.351C53.9989 230.304 53.9103 230.236 53.84 230.15C52.5799 228.612 51.4336 226.985 50.41 225.28C50.3066 225.109 50.2753 224.904 50.3231 224.71C50.371 224.516 50.4939 224.348 50.665 224.245C50.8361 224.142 51.0412 224.11 51.2353 224.158C51.4294 224.206 51.5966 224.329 51.7 224.5C52.686 226.144 53.7888 227.714 55 229.2C55.1249 229.353 55.1845 229.549 55.1658 229.746C55.147 229.942 55.0515 230.123 54.9 230.25C54.7661 230.363 54.5954 230.424 54.42 230.42ZM48.79 221.32C48.6447 221.321 48.5022 221.281 48.3797 221.202C48.2572 221.124 48.16 221.012 48.1 220.88C47.2828 219.07 46.5814 217.209 46 215.31C45.9573 215.125 45.9862 214.931 46.0809 214.767C46.1756 214.603 46.329 214.48 46.5102 214.424C46.6915 214.369 46.8871 214.384 47.0578 214.466C47.2284 214.549 47.3614 214.693 47.43 214.87C47.9828 216.707 48.6508 218.507 49.43 220.26C49.4719 220.35 49.4956 220.447 49.4996 220.546C49.5037 220.645 49.4881 220.744 49.4537 220.837C49.4193 220.93 49.3667 221.016 49.2992 221.088C49.2316 221.161 49.1503 221.219 49.06 221.26C48.9749 221.298 48.8831 221.318 48.79 221.32ZM45.54 211.11C45.3666 211.108 45.199 211.047 45.0659 210.936C44.9328 210.824 44.8424 210.67 44.81 210.5C44.4283 208.557 44.1578 206.594 44 204.62C43.9841 204.421 44.0478 204.224 44.1772 204.072C44.3066 203.92 44.4911 203.826 44.69 203.81C44.8889 203.794 45.086 203.858 45.2379 203.987C45.3898 204.117 45.4841 204.301 45.5 204.5C45.6471 206.417 45.9076 208.324 46.28 210.21C46.3003 210.307 46.3011 210.406 46.2823 210.503C46.2635 210.6 46.2255 210.692 46.1705 210.774C46.1155 210.856 46.0447 210.927 45.9621 210.981C45.8796 211.035 45.7871 211.072 45.69 211.09L45.54 211.11ZM44.59 200.43C44.4911 200.43 44.3932 200.41 44.3021 200.372C44.211 200.333 44.1285 200.277 44.0595 200.206C43.9906 200.135 43.9365 200.052 43.9005 199.959C43.8645 199.867 43.8473 199.769 43.85 199.67C43.8734 197.691 44.0069 195.714 44.25 193.75C44.2511 193.645 44.2745 193.541 44.3186 193.445C44.3626 193.349 44.4264 193.264 44.5057 193.194C44.585 193.125 44.6781 193.073 44.7789 193.042C44.8796 193.01 44.9858 193.001 45.0905 193.014C45.1952 193.026 45.296 193.061 45.3864 193.115C45.4768 193.17 45.5547 193.243 45.615 193.329C45.6753 193.415 45.7168 193.514 45.7366 193.617C45.7564 193.721 45.7542 193.827 45.73 193.93C45.4988 195.842 45.3719 197.765 45.35 199.69C45.3487 199.789 45.328 199.886 45.2891 199.976C45.2502 200.067 45.1939 200.149 45.1233 200.217C45.0527 200.286 44.9693 200.34 44.8778 200.377C44.7863 200.413 44.6885 200.431 44.59 200.43ZM45.81 189.78C45.7538 189.79 45.6963 189.79 45.64 189.78C45.4468 189.737 45.2784 189.619 45.1716 189.453C45.0648 189.286 45.0283 189.084 45.07 188.89C45.5082 186.953 46.0693 185.046 46.75 183.18C46.7831 183.083 46.8359 182.993 46.9051 182.917C46.9743 182.841 47.0584 182.78 47.1522 182.738C47.246 182.696 47.3475 182.673 47.4503 182.672C47.5531 182.67 47.6552 182.69 47.75 182.73C47.8465 182.764 47.935 182.818 48.0103 182.887C48.0856 182.957 48.1461 183.041 48.1881 183.134C48.2302 183.228 48.2529 183.328 48.2549 183.431C48.257 183.533 48.2383 183.635 48.2 183.73C47.5439 185.534 47.0028 187.378 46.58 189.25C46.5306 189.413 46.4275 189.553 46.2877 189.65C46.1478 189.746 45.9794 189.792 45.81 189.78ZM49.37 179.68C49.2547 179.685 49.1404 179.657 49.04 179.6C48.9505 179.558 48.8703 179.499 48.804 179.426C48.7378 179.353 48.6869 179.267 48.6542 179.174C48.6216 179.081 48.608 178.982 48.6141 178.883C48.6203 178.785 48.6461 178.688 48.69 178.6C49.5628 176.818 50.5447 175.091 51.63 173.43C51.7393 173.275 51.9032 173.167 52.0887 173.128C52.2742 173.089 52.4676 173.122 52.63 173.22C52.7885 173.326 52.8999 173.49 52.9409 173.676C52.9819 173.862 52.9493 174.057 52.85 174.22C51.7951 175.825 50.8432 177.495 50 179.22C49.9482 179.348 49.8618 179.459 49.7505 179.54C49.6392 179.621 49.5074 179.67 49.37 179.68ZM55.12 170.68C54.9527 170.682 54.7901 170.625 54.66 170.52C54.582 170.459 54.517 170.382 54.4687 170.296C54.4204 170.209 54.3898 170.114 54.3787 170.015C54.3675 169.917 54.376 169.817 54.4037 169.721C54.4314 169.626 54.4777 169.537 54.54 169.46C55.7897 167.916 57.1251 166.444 58.54 165.05C58.6806 164.91 58.8713 164.831 59.07 164.831C59.2688 164.831 59.4594 164.91 59.6 165.05C59.7405 165.191 59.8193 165.381 59.8193 165.58C59.8193 165.779 59.7405 165.969 59.6 166.11C58.2372 167.47 56.9487 168.902 55.74 170.4C55.6625 170.486 55.5661 170.552 55.4585 170.594C55.3508 170.635 55.2349 170.651 55.12 170.64V170.68ZM62.64 163C62.531 163 62.4233 162.976 62.3248 162.929C62.2263 162.882 62.1393 162.814 62.07 162.73C61.9433 162.577 61.8818 162.38 61.8986 162.182C61.9154 161.984 62.0093 161.8 62.16 161.67C63.6823 160.404 65.2677 159.216 66.91 158.11C67.0712 158.011 67.2638 157.977 67.4492 158.014C67.6347 158.051 67.7992 158.157 67.91 158.31C68.0216 158.476 68.0632 158.68 68.0258 158.876C67.9883 159.073 67.8749 159.247 67.71 159.36C66.1077 160.436 64.5623 161.594 63.08 162.83C62.9544 162.931 62.8007 162.99 62.64 163Z" fill="#E0E0E0"/>
<path d="M69.14 241.61C69.0327 241.611 68.9266 241.587 68.83 241.54C67.9 241.12 66.98 240.67 66.1 240.19C66.014 240.145 65.9377 240.083 65.8755 240.008C65.8134 239.933 65.7666 239.847 65.7378 239.754C65.709 239.661 65.6988 239.564 65.7077 239.467C65.7167 239.37 65.7447 239.276 65.79 239.19C65.8834 239.018 66.0402 238.89 66.227 238.832C66.4138 238.774 66.6158 238.791 66.79 238.88C67.65 239.34 68.54 239.78 69.44 240.19C69.5943 240.262 69.7197 240.384 69.7954 240.537C69.8711 240.689 69.8927 240.863 69.8566 241.029C69.8206 241.195 69.729 241.345 69.5969 241.452C69.4649 241.559 69.3002 241.619 69.13 241.62L69.14 241.61Z" fill="#E0E0E0"/>
<path d="M411.19 205.32L453.49 178.24L472.12 184.22L411.19 205.32Z" fill="#105140"/>
<path d="M411.19 205.32L447.75 174.84L439.62 165.46L411.19 205.32Z" fill="#105140"/>
<path d="M447.75 174.84V181.91L411.19 205.32L447.75 174.84Z" fill="#455A64"/>
<path d="M456 171.89C455.819 171.891 455.644 171.823 455.51 171.7C455.362 171.568 455.272 171.382 455.259 171.184C455.246 170.986 455.311 170.791 455.44 170.64C456.742 169.187 457.898 167.61 458.89 165.93C458.991 165.758 459.156 165.632 459.349 165.582C459.542 165.531 459.748 165.559 459.92 165.66C460.092 165.761 460.218 165.926 460.268 166.119C460.319 166.312 460.291 166.518 460.19 166.69C459.143 168.451 457.931 170.108 456.57 171.64C456.498 171.72 456.411 171.784 456.312 171.827C456.214 171.87 456.107 171.892 456 171.89ZM461.72 162.57C461.631 162.584 461.539 162.584 461.45 162.57C461.355 162.534 461.269 162.479 461.196 162.408C461.123 162.338 461.065 162.253 461.026 162.16C460.987 162.066 460.967 161.966 460.968 161.865C460.968 161.763 460.99 161.663 461.03 161.57C461.737 159.749 462.266 157.863 462.61 155.94C462.646 155.744 462.758 155.57 462.922 155.456C463.086 155.343 463.289 155.299 463.485 155.335C463.681 155.371 463.855 155.483 463.969 155.647C464.082 155.811 464.126 156.014 464.09 156.21C463.722 158.225 463.162 160.201 462.42 162.11C462.363 162.248 462.266 162.367 462.141 162.449C462.016 162.531 461.869 162.573 461.72 162.57ZM463.86 151.84C463.762 151.839 463.665 151.818 463.575 151.779C463.485 151.74 463.404 151.683 463.336 151.613C463.268 151.542 463.215 151.459 463.18 151.367C463.144 151.276 463.127 151.178 463.13 151.08C463.13 150.82 463.13 150.56 463.13 150.3C463.126 148.602 462.992 146.907 462.73 145.23C462.701 145.033 462.751 144.832 462.869 144.671C462.987 144.51 463.163 144.402 463.36 144.37C463.557 144.344 463.756 144.395 463.917 144.512C464.077 144.63 464.186 144.804 464.22 145C464.49 146.754 464.627 148.526 464.63 150.3C464.63 150.57 464.63 150.84 464.63 151.11C464.622 151.308 464.537 151.495 464.393 151.632C464.25 151.768 464.058 151.843 463.86 151.84ZM462.35 141C462.189 141 462.033 140.946 461.904 140.849C461.776 140.752 461.684 140.615 461.64 140.46C461.066 138.584 460.347 136.755 459.49 134.99C459.446 134.902 459.42 134.805 459.414 134.707C459.408 134.608 459.422 134.509 459.454 134.416C459.487 134.323 459.538 134.237 459.604 134.164C459.67 134.091 459.751 134.032 459.84 133.99C460.019 133.904 460.225 133.893 460.412 133.958C460.6 134.024 460.754 134.161 460.84 134.34C461.734 136.174 462.48 138.077 463.07 140.03C463.099 140.124 463.109 140.223 463.1 140.321C463.09 140.418 463.062 140.513 463.015 140.6C462.969 140.686 462.905 140.763 462.829 140.825C462.752 140.887 462.664 140.933 462.57 140.96C462.5 140.988 462.425 141.001 462.35 141ZM457.71 131.07C457.584 131.071 457.459 131.04 457.349 130.978C457.238 130.917 457.146 130.828 457.08 130.72C456.008 129.074 454.829 127.501 453.55 126.01C453.485 125.935 453.436 125.849 453.405 125.755C453.374 125.661 453.362 125.562 453.37 125.463C453.377 125.365 453.404 125.269 453.449 125.181C453.493 125.093 453.555 125.014 453.63 124.95C453.704 124.886 453.79 124.837 453.883 124.806C453.976 124.775 454.074 124.763 454.172 124.771C454.269 124.778 454.365 124.805 454.452 124.849C454.539 124.894 454.617 124.955 454.68 125.03C456.007 126.573 457.23 128.204 458.34 129.91C458.432 130.075 458.461 130.268 458.42 130.452C458.38 130.636 458.273 130.799 458.12 130.91C458 130.998 457.858 131.05 457.71 131.06V131.07ZM450.71 122.66C450.519 122.659 450.336 122.584 450.2 122.45C448.76 121.102 447.248 119.834 445.67 118.65C445.591 118.591 445.525 118.517 445.475 118.432C445.424 118.347 445.391 118.254 445.378 118.156C445.364 118.059 445.369 117.959 445.393 117.864C445.418 117.768 445.461 117.679 445.52 117.6C445.579 117.521 445.653 117.455 445.738 117.405C445.823 117.355 445.916 117.322 446.014 117.308C446.111 117.294 446.211 117.299 446.306 117.324C446.402 117.348 446.491 117.391 446.57 117.45C448.195 118.665 449.751 119.97 451.23 121.36C451.341 121.463 451.419 121.597 451.452 121.745C451.485 121.893 451.473 122.048 451.417 122.189C451.36 122.329 451.263 122.45 451.136 122.534C451.01 122.618 450.862 122.662 450.71 122.66ZM441.94 116C441.798 115.999 441.659 115.957 441.54 115.88C440.86 115.46 440.15 115.04 439.43 114.63C438.43 114.07 437.43 113.51 436.37 112.98C436.273 112.941 436.186 112.883 436.113 112.808C436.04 112.734 435.983 112.645 435.947 112.547C435.91 112.449 435.894 112.345 435.9 112.241C435.906 112.137 435.934 112.035 435.981 111.942C436.029 111.85 436.095 111.768 436.176 111.702C436.257 111.636 436.351 111.588 436.451 111.561C436.552 111.533 436.657 111.527 436.76 111.542C436.863 111.558 436.962 111.594 437.05 111.65C438.1 112.19 439.15 112.75 440.17 113.33C440.91 113.74 441.63 114.17 442.33 114.61C442.492 114.713 442.608 114.874 442.654 115.06C442.701 115.246 442.674 115.443 442.58 115.61C442.515 115.724 442.423 115.82 442.311 115.888C442.199 115.956 442.071 115.995 441.94 116ZM352.29 115.49C352.158 115.489 352.029 115.453 351.915 115.386C351.801 115.32 351.706 115.224 351.64 115.11C351.545 114.941 351.52 114.742 351.571 114.555C351.621 114.368 351.743 114.208 351.91 114.11C353.65 113.11 355.44 112.11 357.25 111.27C357.428 111.183 357.633 111.17 357.82 111.234C358.007 111.298 358.162 111.433 358.25 111.61C358.333 111.789 358.343 111.994 358.278 112.181C358.213 112.368 358.077 112.522 357.9 112.61C356.12 113.48 354.36 114.41 352.65 115.4C352.538 115.455 352.414 115.479 352.29 115.47V115.49ZM432.19 110.92C432.086 110.921 431.983 110.897 431.89 110.85C430.09 110.06 428.23 109.32 426.37 108.66C426.182 108.592 426.028 108.453 425.943 108.272C425.857 108.091 425.847 107.883 425.915 107.695C425.983 107.507 426.122 107.353 426.303 107.268C426.484 107.182 426.692 107.172 426.88 107.24C428.77 107.92 430.66 108.67 432.5 109.48C432.66 109.548 432.792 109.67 432.872 109.825C432.953 109.98 432.976 110.158 432.94 110.328C432.903 110.498 432.808 110.651 432.671 110.759C432.534 110.867 432.364 110.924 432.19 110.92ZM362.14 110.61C361.992 110.611 361.848 110.568 361.725 110.486C361.602 110.404 361.506 110.287 361.45 110.15C361.409 110.058 361.387 109.959 361.385 109.859C361.383 109.758 361.401 109.659 361.438 109.565C361.476 109.472 361.531 109.387 361.602 109.316C361.673 109.245 361.757 109.188 361.85 109.15C363.7 108.37 365.6 107.65 367.5 107C367.595 106.96 367.698 106.941 367.801 106.943C367.905 106.945 368.007 106.968 368.1 107.012C368.194 107.055 368.278 107.117 368.347 107.194C368.416 107.271 368.468 107.362 368.5 107.46C368.536 107.556 368.553 107.659 368.549 107.762C368.545 107.865 368.52 107.966 368.476 108.059C368.433 108.153 368.371 108.236 368.294 108.305C368.217 108.374 368.127 108.427 368.03 108.46C366.16 109.1 364.28 109.81 362.47 110.57C362.363 110.6 362.25 110.607 362.14 110.59V110.61ZM421.87 107.15C421.8 107.16 421.73 107.16 421.66 107.15C419.77 106.6 417.83 106.15 415.9 105.68C415.803 105.659 415.712 105.619 415.631 105.563C415.55 105.507 415.481 105.435 415.427 105.352C415.374 105.269 415.337 105.176 415.32 105.079C415.302 104.981 415.304 104.882 415.325 104.785C415.346 104.689 415.386 104.597 415.442 104.516C415.499 104.435 415.57 104.366 415.653 104.312C415.737 104.259 415.829 104.222 415.927 104.205C416.024 104.187 416.123 104.189 416.22 104.21C418.22 104.64 420.16 105.15 422.08 105.71C422.253 105.761 422.403 105.872 422.5 106.024C422.598 106.175 422.638 106.357 422.612 106.536C422.587 106.715 422.498 106.878 422.361 106.997C422.225 107.115 422.051 107.18 421.87 107.18V107.15ZM372.52 107C372.356 106.999 372.198 106.945 372.068 106.846C371.938 106.747 371.844 106.608 371.8 106.45C371.773 106.356 371.764 106.258 371.775 106.161C371.786 106.063 371.816 105.969 371.863 105.884C371.91 105.798 371.974 105.723 372.051 105.662C372.128 105.601 372.216 105.557 372.31 105.53C374.24 104.99 376.22 104.53 378.19 104.09C378.29 104.058 378.395 104.048 378.499 104.059C378.604 104.07 378.704 104.103 378.795 104.156C378.885 104.209 378.964 104.28 379.025 104.365C379.087 104.449 379.13 104.546 379.152 104.649C379.173 104.751 379.173 104.857 379.152 104.96C379.13 105.062 379.087 105.159 379.026 105.244C378.964 105.329 378.886 105.4 378.795 105.453C378.705 105.505 378.604 105.539 378.5 105.55C376.56 105.96 374.62 106.44 372.72 106.97L372.52 107ZM411.15 104.74H411C409.05 104.43 407.06 104.18 405.1 104C404.997 103.999 404.895 103.976 404.801 103.934C404.706 103.892 404.622 103.83 404.553 103.754C404.483 103.677 404.43 103.587 404.397 103.489C404.364 103.391 404.352 103.288 404.361 103.185C404.37 103.082 404.4 102.982 404.45 102.891C404.499 102.801 404.567 102.721 404.648 102.658C404.73 102.594 404.824 102.549 404.924 102.523C405.024 102.498 405.128 102.493 405.23 102.51C407.23 102.69 409.23 102.94 411.23 103.26C411.425 103.294 411.599 103.403 411.715 103.564C411.831 103.725 411.879 103.924 411.85 104.12C411.815 104.282 411.727 104.428 411.6 104.534C411.474 104.641 411.315 104.703 411.15 104.71V104.74ZM383.26 104.67C383.082 104.67 382.91 104.607 382.774 104.491C382.639 104.376 382.548 104.216 382.52 104.04C382.491 103.843 382.541 103.642 382.659 103.481C382.777 103.32 382.953 103.212 383.15 103.18C385.15 102.88 387.15 102.63 389.15 102.46C389.248 102.452 389.348 102.462 389.442 102.492C389.536 102.522 389.624 102.57 389.699 102.634C389.775 102.697 389.837 102.775 389.883 102.863C389.929 102.951 389.956 103.047 389.965 103.145C389.974 103.244 389.963 103.343 389.933 103.437C389.903 103.531 389.855 103.619 389.791 103.694C389.728 103.77 389.65 103.833 389.562 103.878C389.474 103.924 389.378 103.952 389.28 103.96C387.28 104.13 385.33 104.36 383.38 104.67H383.26ZM400.21 103.67C398.21 103.6 396.21 103.59 394.26 103.67C394.162 103.675 394.063 103.661 393.971 103.627C393.878 103.594 393.793 103.542 393.721 103.474C393.649 103.407 393.592 103.326 393.552 103.236C393.512 103.146 393.491 103.049 393.49 102.95C393.486 102.851 393.502 102.753 393.537 102.66C393.571 102.567 393.624 102.483 393.692 102.411C393.76 102.339 393.842 102.282 393.933 102.242C394.023 102.202 394.121 102.181 394.22 102.18C396.22 102.11 398.22 102.12 400.22 102.18C400.319 102.183 400.416 102.205 400.506 102.245C400.596 102.285 400.677 102.342 400.745 102.414C400.812 102.485 400.865 102.569 400.901 102.661C400.936 102.753 400.953 102.852 400.95 102.95C400.935 103.138 400.851 103.313 400.715 103.442C400.578 103.572 400.398 103.646 400.21 103.65V103.67Z" fill="#E0E0E0"/>
<path d="M396.44 219.94V218.34H396.05C395.456 217.256 394.555 216.372 393.46 215.8C391.226 214.666 388.756 214.075 386.25 214.075C383.744 214.075 381.274 214.666 379.04 215.8C377.945 216.372 377.044 217.256 376.45 218.34H376.06V219.89C376.06 221.42 377.06 222.96 379.06 224.13C381.296 225.259 383.765 225.847 386.27 225.847C388.775 225.847 391.244 225.259 393.48 224.13C395.46 223 396.45 221.46 396.44 219.94Z" fill="#37474F"/>
<path d="M386.25 224.23C391.878 224.23 396.44 221.593 396.44 218.34C396.44 215.087 391.878 212.45 386.25 212.45C380.622 212.45 376.06 215.087 376.06 218.34C376.06 221.593 380.622 224.23 386.25 224.23Z" fill="#455A64"/>
<path d="M383.63 169.3V217.65C383.651 217.879 383.733 218.099 383.866 218.287C384 218.475 384.18 218.624 384.39 218.72C384.965 219.011 385.601 219.162 386.245 219.162C386.889 219.162 387.525 219.011 388.1 218.72C388.312 218.627 388.495 218.478 388.631 218.29C388.766 218.102 388.849 217.881 388.87 217.65V169.3H383.63Z" fill="#37474F"/>
<path d="M398 133.11C395.45 131.64 393.13 131.52 391.39 132.49L359 151.21L375.25 183.8L407.75 165V150.74C407.75 144.11 403.38 136.22 398 133.11Z" fill="#455A64"/>
<path d="M375.25 169.53V183.8L355.76 172.54V158.28C355.76 151.65 360.12 148.8 365.5 151.91C368.95 153.91 371.98 157.85 373.71 162.17C374.678 164.506 375.2 167.002 375.25 169.53Z" fill="#37474F"/>
<path d="M375.25 169.53V183.8L355.76 172.54L373.71 162.17C374.678 164.506 375.2 167.002 375.25 169.53Z" fill="#263238"/>
<path d="M372 174.42C370.21 169.24 364.39 162.52 359 159.42C353.61 156.32 350.71 157.99 352.5 163.17L355.75 172.55L375.25 183.81C375.25 183.81 373.8 179.6 372 174.42Z" fill="#455A64"/>
<path d="M385.41 170.07L384.32 169.44C384.086 169.333 383.828 169.289 383.571 169.313C383.315 169.338 383.069 169.43 382.86 169.58C382.258 169.974 381.756 170.505 381.397 171.128C381.037 171.752 380.829 172.451 380.79 173.17C380.763 173.428 380.805 173.688 380.912 173.923C381.02 174.159 381.188 174.362 381.4 174.51L382.4 175.09L382.59 174.78C382.798 174.735 382.997 174.658 383.18 174.55C383.782 174.158 384.283 173.63 384.643 173.008C385.003 172.386 385.211 171.688 385.25 170.97C385.249 170.791 385.226 170.613 385.18 170.44L385.41 170.07Z" fill="#263238"/>
<path d="M383.9 170.19C383.298 170.582 382.797 171.111 382.437 171.733C382.077 172.355 381.869 173.053 381.83 173.77C381.83 175.09 382.76 175.62 383.9 174.96C384.503 174.569 385.004 174.04 385.364 173.418C385.724 172.796 385.931 172.098 385.97 171.38C386 170.06 385 169.53 383.9 170.19Z" fill="#37474F"/>
<path d="M383.9 173.14C383.821 173.14 383.743 173.125 383.67 173.094C383.598 173.064 383.531 173.02 383.476 172.964C383.42 172.909 383.376 172.842 383.346 172.77C383.316 172.697 383.3 172.619 383.3 172.54V151.91C383.3 151.751 383.363 151.598 383.476 151.486C383.588 151.373 383.741 151.31 383.9 151.31C384.059 151.31 384.212 151.373 384.324 151.486C384.437 151.598 384.5 151.751 384.5 151.91V172.54C384.5 172.699 384.437 172.852 384.324 172.964C384.212 173.077 384.059 173.14 383.9 173.14Z" fill="#263238"/>
<path d="M384.44 152.45V157.83L390.21 151.91L384.44 152.45Z" fill="#37474F"/>
<path d="M81.08 330.91C80.58 331.18 71.4 333.78 68 329.29C64.6 324.8 70.25 317.8 67.06 315.22C63.87 312.64 54.93 315.22 52.78 309.8C50.63 304.38 57 302.04 53.42 296.57C51.16 293.12 44.84 291.22 45.13 288.01C45.55 283.32 54.19 282.01 61.73 287.08C69.27 292.15 72.79 287.99 75.18 287.65C77.57 287.31 82.73 288.06 82.57 296.46C82.41 304.86 81.08 330.91 81.08 330.91Z" fill="#105140"/>
<path d="M81.69 319C81.5707 319 81.4553 318.957 81.364 318.881C81.2726 318.804 81.2111 318.697 81.19 318.58C78.56 302.58 60.03 289.65 50.39 286.87C50.3262 286.853 50.2666 286.823 50.2147 286.782C50.1627 286.741 50.1196 286.69 50.0878 286.632C50.0561 286.575 50.0363 286.511 50.0298 286.445C50.0233 286.379 50.0302 286.313 50.05 286.25C50.0871 286.123 50.1733 286.015 50.2896 285.952C50.4059 285.888 50.5427 285.873 50.67 285.91C60.52 288.76 79.48 302.05 82.18 318.42C82.2003 318.55 82.1686 318.682 82.0919 318.789C82.0152 318.896 81.8995 318.968 81.77 318.99L81.69 319Z" fill="white"/>
<path d="M59.83 305.61C59.72 305.611 59.6128 305.576 59.5248 305.51C59.4369 305.444 59.3732 305.351 59.3436 305.245C59.314 305.139 59.3201 305.026 59.361 304.924C59.402 304.822 59.4754 304.736 59.57 304.68C59.87 304.5 67.01 300.33 74.03 302.28C74.1626 302.315 74.2761 302.4 74.3455 302.518C74.4149 302.637 74.4345 302.777 74.4 302.91C74.3655 303.043 74.2798 303.156 74.1616 303.225C74.0435 303.295 73.9026 303.315 73.77 303.28C67.15 301.44 60.15 305.53 60.08 305.57C60.0022 305.607 59.9154 305.621 59.83 305.61Z" fill="white"/>
<path d="M342.5 246.42C346.44 246.96 353.15 244.68 353.63 238.12C354.11 231.56 356.82 229.78 361.79 228.71C366.76 227.64 368.22 225.91 368.79 222.79C369.36 219.67 365.58 215.94 366.64 211.24C367.7 206.54 371.24 206.55 374.72 201.24C376.95 197.82 372.38 192.6 364.77 194.84C357.16 197.08 357.77 201.99 350.16 202.62C342.55 203.25 337.78 207.87 337.63 213.62C337.48 219.37 342.5 246.42 342.5 246.42Z" fill="#105140"/>
<path opacity="0.2" d="M342.5 246.42C346.44 246.96 353.15 244.68 353.63 238.12C354.11 231.56 356.82 229.78 361.79 228.71C366.76 227.64 368.22 225.91 368.79 222.79C369.36 219.67 365.58 215.94 366.64 211.24C367.7 206.54 371.24 206.55 374.72 201.24C376.95 197.82 372.38 192.6 364.77 194.84C357.16 197.08 357.77 201.99 350.16 202.62C342.55 203.25 337.78 207.87 337.63 213.62C337.48 219.37 342.5 246.42 342.5 246.42Z" fill="black"/>
<path d="M341.06 233.84H341C340.936 233.827 340.875 233.801 340.82 233.765C340.766 233.728 340.719 233.681 340.683 233.626C340.647 233.571 340.622 233.51 340.609 233.445C340.597 233.381 340.597 233.314 340.61 233.25C344.29 215.06 364.36 198.41 369.25 196.71C369.383 196.666 369.527 196.677 369.652 196.74C369.777 196.803 369.871 196.913 369.915 197.045C369.959 197.178 369.948 197.322 369.885 197.447C369.822 197.572 369.713 197.666 369.58 197.71C364.8 199.37 345.19 215.71 341.58 233.5C341.543 233.606 341.472 233.697 341.378 233.758C341.284 233.82 341.172 233.849 341.06 233.84Z" fill="white"/>
<path d="M76.88 227.39C76.9289 226.488 77.1898 225.611 77.6415 224.829C78.0933 224.047 78.7232 223.383 79.48 222.89L212.39 146.15C213.195 145.745 214.084 145.535 214.985 145.535C215.886 145.535 216.775 145.745 217.58 146.15L220.51 147.85C221.268 148.341 221.9 149.005 222.352 149.787C222.804 150.569 223.064 151.448 223.11 152.35V254.23C223.059 255.131 222.797 256.008 222.345 256.789C221.894 257.571 221.265 258.236 220.51 258.73L87.6 335.46C86.7944 335.869 85.9036 336.083 85 336.083C84.0964 336.083 83.2056 335.869 82.4 335.46L79.48 333.77C78.7243 333.276 78.0953 332.612 77.6436 331.83C77.192 331.048 76.9304 330.171 76.88 329.27V227.39Z" fill="#105140"/>
<path opacity="0.3" d="M76.88 227.39C76.9289 226.488 77.1898 225.611 77.6415 224.829C78.0933 224.047 78.7232 223.383 79.48 222.89L212.39 146.15C213.195 145.745 214.084 145.535 214.985 145.535C215.886 145.535 216.775 145.745 217.58 146.15L220.51 147.85C221.268 148.341 221.9 149.005 222.352 149.787C222.804 150.569 223.064 151.448 223.11 152.35V254.23C223.059 255.131 222.797 256.008 222.345 256.789C221.894 257.571 221.265 258.236 220.51 258.73L87.6 335.46C86.7944 335.869 85.9036 336.083 85 336.083C84.0964 336.083 83.2056 335.869 82.4 335.46L79.48 333.77C78.7243 333.276 78.0953 332.612 77.6436 331.83C77.192 331.048 76.9304 330.171 76.88 329.27V227.39Z" fill="black"/>
<path d="M89.06 231.43L77.64 224.83C77.1731 225.605 76.9116 226.486 76.88 227.39V329.27C76.9304 330.171 77.192 331.048 77.6436 331.83C78.0953 332.612 78.7243 333.276 79.48 333.77L82.4 335.46C83.2056 335.869 84.0964 336.083 85 336.083C85.9036 336.083 86.7944 335.869 87.6 335.46L89.06 334.62V231.43Z" fill="#105140"/>
<path opacity="0.5" d="M89.06 231.43L77.64 224.83C77.1731 225.605 76.9116 226.486 76.88 227.39V329.27C76.9304 330.171 77.192 331.048 77.6436 331.83C78.0953 332.612 78.7243 333.276 79.48 333.77L82.4 335.46C83.2056 335.869 84.0964 336.083 85 336.083C85.9036 336.083 86.7944 335.869 87.6 335.46L89.06 334.62V231.43Z" fill="black"/>
<path d="M223.11 152.35V254.23C223.076 255.163 222.797 256.07 222.3 256.86C221.916 257.525 221.398 258.104 220.78 258.56L220.68 258.62L220.51 258.73L87.6 335.46C87.3456 335.64 87.0501 335.752 86.7407 335.787C86.4312 335.822 86.118 335.778 85.83 335.66C85.5531 335.486 85.3294 335.239 85.1831 334.946C85.0367 334.653 84.9734 334.326 85 334V232.08C84.9774 231.715 85.0436 231.35 85.1929 231.017C85.3422 230.683 85.5702 230.391 85.8572 230.165C86.1443 229.939 86.482 229.786 86.8413 229.718C87.2005 229.651 87.5707 229.673 87.92 229.78L143.81 243.07L151.13 244.81C151.994 244.972 152.886 244.894 153.709 244.586C154.532 244.277 155.255 243.75 155.8 243.06L164.28 231.25L221.36 151.78C222.32 150.44 223.11 150.69 223.11 152.35Z" fill="#105140"/>
<path opacity="0.2" d="M223.11 152.35V254.23C223.076 255.163 222.797 256.07 222.3 256.86C221.916 257.525 221.398 258.104 220.78 258.56L220.68 258.62L220.51 258.73L87.6 335.46C87.3456 335.64 87.0501 335.752 86.7407 335.787C86.4312 335.822 86.118 335.778 85.83 335.66C85.5531 335.486 85.3294 335.239 85.1831 334.946C85.0367 334.653 84.9734 334.326 85 334V232.08C84.9774 231.715 85.0436 231.35 85.1929 231.017C85.3422 230.683 85.5702 230.391 85.8572 230.165C86.1443 229.939 86.482 229.786 86.8413 229.718C87.2005 229.651 87.5707 229.673 87.92 229.78L143.81 243.07L151.13 244.81C151.994 244.972 152.886 244.894 153.709 244.586C154.532 244.277 155.255 243.75 155.8 243.06L164.28 231.25L221.36 151.78C222.32 150.44 223.11 150.69 223.11 152.35Z" fill="black"/>
<path d="M220.51 258.73L220.68 258.62L220.78 258.56C221.398 258.104 221.916 257.525 222.3 256.86C222.791 256.082 223.071 255.189 223.11 254.27L164.28 231.27L203.68 268.47L220.51 258.73Z" fill="#105140"/>
<path opacity="0.6" d="M220.51 258.73L220.68 258.62L220.78 258.56C221.398 258.104 221.916 257.525 222.3 256.86C222.791 256.082 223.071 255.189 223.11 254.27L164.28 231.27L203.68 268.47L220.51 258.73Z" fill="black"/>
<path d="M85 334C84.9618 334.332 85.0174 334.669 85.1606 334.971C85.3038 335.273 85.5287 335.529 85.81 335.71C86.098 335.828 86.4113 335.872 86.7207 335.837C87.0301 335.802 87.3256 335.69 87.58 335.51L133.36 309L143.81 243L85 332.27V334Z" fill="#105140"/>
<path opacity="0.6" d="M85 334C84.9618 334.332 85.0174 334.669 85.1606 334.971C85.3038 335.273 85.5287 335.529 85.81 335.71C86.098 335.828 86.4113 335.872 86.7207 335.837C87.0301 335.802 87.3256 335.69 87.58 335.51L133.36 309L143.81 243L85 332.27V334Z" fill="black"/>
<path d="M222.3 256.86C221.916 257.525 221.398 258.104 220.78 258.56L220.68 258.62L87.6 335.46C87.3457 335.64 87.0501 335.752 86.7407 335.787C86.4313 335.822 86.118 335.778 85.83 335.66L149.48 234.05C150.759 232.015 152.729 230.508 155.028 229.807C157.327 229.105 159.802 229.256 162 230.23L222.3 256.86Z" fill="#105140"/>
<path opacity="0.2" d="M222.3 256.86C221.916 257.525 221.398 258.104 220.78 258.56L220.68 258.62L87.6 335.46C87.3457 335.64 87.0501 335.752 86.7407 335.787C86.4313 335.822 86.118 335.778 85.83 335.66L149.48 234.05C150.759 232.015 152.729 230.508 155.028 229.807C157.327 229.105 159.802 229.256 162 230.23L222.3 256.86Z" fill="black"/>
<path d="M85 229.08L146.13 256.08C148.331 257.052 150.808 257.197 153.108 256.49C155.408 255.783 157.375 254.27 158.65 252.23L222.84 149.5L85 229.08Z" fill="#105140"/>
<path opacity="0.6" d="M85 229.08L146.13 256.08C148.331 257.052 150.808 257.197 153.108 256.49C155.408 255.783 157.375 254.27 158.65 252.23L222.84 149.5L85 229.08Z" fill="black"/>
<path d="M85 229.08L146.56 252.08C148.687 252.874 151.022 252.921 153.179 252.212C155.336 251.503 157.188 250.081 158.43 248.18L222.84 149.5L85 229.08Z" fill="#105140"/>
<path opacity="0.2" d="M85 229.08L146.56 252.08C148.687 252.874 151.022 252.921 153.179 252.212C155.336 251.503 157.188 250.081 158.43 248.18L222.84 149.5L85 229.08Z" fill="black"/>
<path d="M99.58 239.94C99.6265 239.038 99.8864 238.159 100.338 237.377C100.79 236.595 101.422 235.931 102.18 235.44L235.09 158.7C235.896 158.291 236.786 158.077 237.69 158.077C238.594 158.077 239.484 158.291 240.29 158.7L243.22 160.39C243.975 160.884 244.603 161.549 245.053 162.33C245.503 163.112 245.762 163.989 245.81 164.89V266.77C245.761 267.67 245.501 268.547 245.051 269.328C244.601 270.11 243.974 270.775 243.22 271.27L110.3 348C109.495 348.405 108.606 348.615 107.705 348.615C106.804 348.615 105.915 348.405 105.11 348L102.18 346.31C101.425 345.816 100.796 345.151 100.345 344.369C99.8931 343.588 99.6312 342.711 99.58 341.81V239.94Z" fill="#455A64"/>
<path d="M99.58 239.94C99.6265 239.038 99.8864 238.159 100.338 237.377C100.79 236.595 101.422 235.931 102.18 235.44L235.09 158.7C235.896 158.291 236.786 158.077 237.69 158.077C238.594 158.077 239.484 158.291 240.29 158.7L243.22 160.39C243.975 160.884 244.603 161.549 245.053 162.33C245.503 163.112 245.762 163.989 245.81 164.89V266.77C245.761 267.67 245.501 268.547 245.051 269.328C244.601 270.11 243.974 270.775 243.22 271.27L110.3 348C109.495 348.405 108.606 348.615 107.705 348.615C106.804 348.615 105.915 348.405 105.11 348L102.18 346.31C101.425 345.816 100.796 345.151 100.345 344.369C99.8931 343.588 99.6312 342.711 99.58 341.81V239.94Z" fill="#455A64"/>
<path d="M111.77 244L100.34 237.41C99.8719 238.184 99.6103 239.066 99.58 239.97V341.82C99.6312 342.721 99.8931 343.598 100.345 344.379C100.796 345.161 101.425 345.825 102.18 346.32L105.11 348.01C105.915 348.414 106.804 348.625 107.705 348.625C108.606 348.625 109.495 348.414 110.3 348.01L111.77 347.16V244Z" fill="#263238"/>
<path d="M245.82 164.89V266.77C245.786 267.703 245.507 268.61 245.01 269.4C244.626 270.065 244.109 270.644 243.49 271.1L243.39 271.16L243.22 271.27L110.31 348C110.056 348.18 109.76 348.292 109.451 348.327C109.141 348.362 108.828 348.318 108.54 348.2C108.259 348.019 108.034 347.763 107.891 347.461C107.747 347.159 107.692 346.822 107.73 346.49V244.62C107.707 244.255 107.774 243.89 107.923 243.557C108.072 243.223 108.3 242.931 108.587 242.705C108.874 242.479 109.212 242.325 109.571 242.258C109.931 242.191 110.301 242.213 110.65 242.32L166.54 255.61L173.86 257.35C174.724 257.512 175.616 257.434 176.439 257.126C177.262 256.817 177.985 256.29 178.53 255.6L187 243.79L244.08 164.32C245 163 245.82 163.23 245.82 164.89Z" fill="#37474F"/>
<path d="M243.22 271.27L243.39 271.16L243.49 271.1C244.109 270.644 244.626 270.065 245.01 269.4C245.495 268.624 245.771 267.735 245.81 266.82L186.99 243.82L226.38 281L243.22 271.27Z" fill="#263238"/>
<path d="M107.71 346.5C107.672 346.832 107.727 347.168 107.871 347.471C108.014 347.773 108.239 348.029 108.52 348.21C108.808 348.328 109.121 348.372 109.431 348.337C109.74 348.302 110.036 348.19 110.29 348.01L156.05 321.59L166.5 255.59L107.69 344.79L107.71 346.5Z" fill="#263238"/>
<path d="M245 269.4C244.616 270.065 244.098 270.644 243.48 271.1L243.38 271.16L110.31 348C110.056 348.18 109.76 348.292 109.451 348.327C109.141 348.362 108.828 348.318 108.54 348.2L172.18 246.6C173.456 244.561 175.424 243.051 177.724 242.345C180.024 241.64 182.5 241.787 184.7 242.76L245 269.4Z" fill="#37474F"/>
<path d="M107.71 241.63L168.84 268.63C171.04 269.599 173.515 269.743 175.812 269.036C178.11 268.329 180.076 266.818 181.35 264.78L245.54 162L107.71 241.63Z" fill="#263238"/>
<path d="M107.71 241.63L169.26 264.63C171.389 265.427 173.725 265.475 175.885 264.766C178.044 264.057 179.898 262.633 181.14 260.73L245.54 162L107.71 241.63Z" fill="#37474F"/>
<path d="M197.07 320.81V218.93C197.163 216.997 197.767 215.123 198.82 213.5L262.21 125.23C263.367 123.617 264.977 122.385 266.836 121.691C268.695 120.996 270.719 120.871 272.65 121.33L332.26 135.5C334.181 136.011 336.034 136.75 337.78 137.7L340.71 139.39C341.463 139.885 342.09 140.551 342.54 141.332C342.99 142.114 343.25 142.99 343.3 143.89V245.77C343.248 246.67 342.987 247.545 342.538 248.327C342.088 249.108 341.462 249.773 340.71 250.27L207.79 327C206.985 327.407 206.097 327.619 205.195 327.619C204.293 327.619 203.405 327.407 202.6 327L199.67 325.31C198.914 324.816 198.285 324.152 197.834 323.37C197.382 322.588 197.12 321.711 197.07 320.81Z" fill="#105140"/>
<path opacity="0.3" d="M197.07 320.81V218.93C197.163 216.997 197.767 215.123 198.82 213.5L262.21 125.23C263.367 123.617 264.977 122.385 266.836 121.691C268.695 120.996 270.719 120.871 272.65 121.33L332.26 135.5C334.181 136.011 336.034 136.75 337.78 137.7L340.71 139.39C341.463 139.885 342.09 140.551 342.54 141.332C342.99 142.114 343.25 142.99 343.3 143.89V245.77C343.248 246.67 342.987 247.545 342.538 248.327C342.088 249.108 341.462 249.773 340.71 250.27L207.79 327C206.985 327.407 206.097 327.619 205.195 327.619C204.293 327.619 203.405 327.407 202.6 327L199.67 325.31C198.914 324.816 198.285 324.152 197.834 323.37C197.382 322.588 197.12 321.711 197.07 320.81Z" fill="white"/>
<path d="M209.25 169.69V299.69C209.25 301.34 210.42 302.02 211.85 301.19L336.64 229.19C337.397 228.698 338.028 228.034 338.48 227.252C338.931 226.47 339.192 225.592 339.24 224.69V94.69C339.24 93.03 338.08 92.36 336.64 93.19L211.85 165.19C211.093 165.683 210.463 166.347 210.012 167.129C209.56 167.911 209.299 168.788 209.25 169.69Z" fill="#FAFAFA"/>
<path d="M210.69 302.06C210.368 302.062 210.05 301.98 209.77 301.82C209.428 301.592 209.154 301.275 208.978 300.903C208.802 300.532 208.73 300.119 208.77 299.71V169.71C208.817 168.719 209.101 167.754 209.597 166.895C210.092 166.035 210.786 165.307 211.62 164.77L336.41 92.77C336.736 92.5047 337.135 92.3447 337.553 92.3114C337.972 92.2782 338.391 92.3731 338.755 92.5836C339.118 92.7942 339.409 93.1103 339.589 93.4901C339.768 93.8699 339.828 94.2954 339.76 94.71V224.71C339.713 225.7 339.43 226.664 338.934 227.522C338.439 228.379 337.744 229.106 336.91 229.64L212.12 301.64C211.689 301.904 211.196 302.049 210.69 302.06ZM337.8 93.28C337.477 93.2985 337.164 93.3982 336.89 93.57L212.1 165.62C211.421 166.071 210.855 166.673 210.447 167.379C210.04 168.085 209.801 168.876 209.75 169.69V299.69C209.69 299.924 209.708 300.172 209.802 300.395C209.896 300.618 210.06 300.805 210.27 300.926C210.479 301.047 210.723 301.096 210.963 301.066C211.203 301.036 211.427 300.929 211.6 300.76L336.39 228.76C337.07 228.31 337.636 227.708 338.044 227.001C338.452 226.295 338.69 225.504 338.74 224.69V94.69C338.768 94.4555 338.736 94.2176 338.647 93.9989C338.558 93.7802 338.414 93.5878 338.23 93.44C338.104 93.3487 337.955 93.2934 337.8 93.28Z" fill="#E0E0E0"/>
<path d="M206.56 221.41L197.56 216.21C197.269 217.088 197.107 218.005 197.08 218.93V320.81C197.13 321.711 197.392 322.588 197.844 323.37C198.295 324.152 198.924 324.816 199.68 325.31L202.6 327C203.404 327.409 204.293 327.622 205.195 327.622C206.097 327.622 206.986 327.409 207.79 327L209.04 326.29L206.56 221.41Z" fill="#105140"/>
<g opacity="0.1">
<path d="M206.56 221.41L197.56 216.21C197.269 217.088 197.107 218.005 197.08 218.93V320.81C197.13 321.711 197.392 322.588 197.844 323.37C198.295 324.152 198.924 324.816 199.68 325.31L202.6 327C203.404 327.409 204.293 327.622 205.195 327.622C206.097 327.622 206.986 327.409 207.79 327L209.04 326.29L206.56 221.41Z" fill="black"/>
</g>
<path d="M343.31 143.89V245.77C343.276 246.703 342.997 247.61 342.5 248.4C342.116 249.065 341.598 249.644 340.98 250.1L340.88 250.16L340.71 250.27L207.8 327C207.546 327.18 207.25 327.292 206.941 327.327C206.631 327.362 206.318 327.318 206.03 327.2C205.749 327.019 205.524 326.763 205.381 326.461C205.237 326.159 205.182 325.822 205.22 325.49V223.62C205.197 223.255 205.264 222.89 205.413 222.557C205.562 222.223 205.79 221.931 206.077 221.705C206.364 221.479 206.702 221.325 207.061 221.258C207.421 221.191 207.791 221.213 208.14 221.32L264 234.61L271.32 236.35C272.186 236.514 273.079 236.437 273.904 236.129C274.73 235.82 275.454 235.292 276 234.6L284.48 222.79L341.56 143.32C342.52 142 343.31 142.23 343.31 143.89Z" fill="#105140"/>
<path opacity="0.3" d="M343.31 143.89V245.77C343.276 246.703 342.997 247.61 342.5 248.4C342.116 249.065 341.598 249.644 340.98 250.1L340.88 250.16L340.71 250.27L207.8 327C207.546 327.18 207.25 327.292 206.941 327.327C206.631 327.362 206.318 327.318 206.03 327.2C205.749 327.019 205.524 326.763 205.381 326.461C205.237 326.159 205.182 325.822 205.22 325.49V223.62C205.197 223.255 205.264 222.89 205.413 222.557C205.562 222.223 205.79 221.931 206.077 221.705C206.364 221.479 206.702 221.325 207.061 221.258C207.421 221.191 207.791 221.213 208.14 221.32L264 234.61L271.32 236.35C272.186 236.514 273.079 236.437 273.904 236.129C274.73 235.82 275.454 235.292 276 234.6L284.48 222.79L341.56 143.32C342.52 142 343.31 142.23 343.31 143.89Z" fill="white"/>
<path d="M340.71 250.27L340.88 250.16L340.98 250.1C341.598 249.644 342.116 249.065 342.5 248.4C342.986 247.62 343.261 246.728 343.3 245.81L284.48 222.81L323.87 260L340.71 250.27Z" fill="#105140"/>
<path d="M205.2 325.5C205.162 325.832 205.217 326.168 205.361 326.471C205.504 326.773 205.729 327.029 206.01 327.21C206.298 327.328 206.611 327.372 206.921 327.337C207.23 327.302 207.526 327.19 207.78 327.01L253.54 300.59L263.99 234.59L205.18 323.79L205.2 325.5Z" fill="#105140"/>
<path d="M342.5 248.4C342.116 249.065 341.598 249.644 340.98 250.1L340.88 250.16L207.8 327C207.546 327.18 207.25 327.292 206.941 327.327C206.631 327.362 206.318 327.318 206.03 327.2L269.67 225.6C270.946 223.564 272.912 222.055 275.21 221.35C277.507 220.644 279.981 220.79 282.18 221.76L342.5 248.4Z" fill="#105140"/>
<path opacity="0.3" d="M342.5 248.4C342.116 249.065 341.598 249.644 340.98 250.1L340.88 250.16L207.8 327C207.546 327.18 207.25 327.292 206.941 327.327C206.631 327.362 206.318 327.318 206.03 327.2L269.67 225.6C270.946 223.564 272.912 222.055 275.21 221.35C277.507 220.644 279.981 220.79 282.18 221.76L342.5 248.4Z" fill="white"/>
<path d="M264.2 199.63C263.033 199.811 261.84 199.705 260.723 199.321C259.607 198.938 258.6 198.289 257.79 197.43C256.27 195.74 255.51 193.13 255.51 189.62C255.513 185.66 256.361 181.746 258 178.14C259.682 174.43 262.004 171.045 264.86 168.14C267.931 164.956 271.431 162.216 275.26 160C279.013 157.84 282.217 156.643 284.87 156.41C287.54 156.17 289.55 156.86 290.93 158.46C292.31 160.06 292.99 162.51 292.99 165.79C293.048 169.043 292.277 172.257 290.75 175.13C289.404 177.732 287.353 179.901 284.83 181.39C283.959 182.009 282.892 182.286 281.83 182.17C281.452 182.095 281.104 181.913 280.827 181.645C280.551 181.377 280.357 181.035 280.27 180.66C279.437 182.235 278.38 183.68 277.13 184.95C275.866 186.254 274.425 187.375 272.85 188.28C270.13 189.82 267.96 190.28 266.36 189.75C264.76 189.22 264 187.6 264 184.9C264.023 181.507 265.068 178.2 267 175.41C269.103 172.317 271.896 169.756 275.16 167.93C276.523 167.118 278.004 166.524 279.55 166.17C280.699 165.859 281.911 165.859 283.06 166.17V176.7C283.06 177.55 283.21 178.07 283.5 178.27C283.79 178.47 284.27 178.37 284.95 177.98C286.217 177.156 287.154 175.914 287.6 174.47C288.276 172.52 288.598 170.464 288.55 168.4C288.55 165.773 287.977 163.863 286.83 162.67C286.217 162.071 285.47 161.628 284.65 161.377C283.831 161.126 282.963 161.076 282.12 161.23C279.679 161.603 277.34 162.474 275.25 163.79C270.829 166.243 267.017 169.661 264.1 173.79C261.404 177.665 259.972 182.279 260 187C260 189.873 260.59 191.97 261.77 193.29C262.382 193.951 263.148 194.45 263.999 194.743C264.85 195.036 265.761 195.114 266.65 194.97C269.139 194.617 271.524 193.742 273.65 192.4C275.117 191.551 276.506 190.574 277.8 189.48C279.005 188.485 280.101 187.366 281.07 186.14C281.17 186.011 281.288 185.897 281.42 185.8C281.51 185.75 281.6 185.8 281.68 185.92L282.78 187.92C282.82 187.999 282.85 188.083 282.87 188.17C282.835 188.393 282.726 188.597 282.56 188.75C281.352 190.203 280.013 191.542 278.56 192.75C277.03 194.033 275.395 195.184 273.67 196.19C270.797 198.004 267.567 199.177 264.2 199.63ZM277.2 180.83C278.152 179.707 278.707 178.301 278.78 176.83V170.73C277.353 170.851 275.978 171.325 274.78 172.11C272.872 173.183 271.248 174.695 270.04 176.52C268.907 178.195 268.298 180.168 268.29 182.19C268.29 183.88 268.71 184.89 269.56 185.19C270.41 185.49 271.72 185.19 273.51 184.12C274.959 183.282 276.227 182.163 277.24 180.83H277.2Z" fill="#E0E0E0"/>
<path d="M136.84 209.65L127.09 204H127.02C123.69 202.12 119.1 202.4 114.02 205.33C103.81 211.22 95.54 225.55 95.54 237.33C95.54 243.22 97.6 247.33 100.93 249.33L110 254.52L111.64 251.79C113.5 251.373 115.287 250.679 116.94 249.73C127.14 243.83 135.42 229.5 135.42 217.73C135.415 216.139 135.22 214.555 134.84 213.01L136.84 209.65Z" fill="#F28F8F"/>
<path d="M136.84 209.65L127.09 204H127.02C123.69 202.12 119.1 202.4 114.02 205.33C103.81 211.22 95.54 225.55 95.54 237.33C95.54 243.22 97.6 247.33 100.93 249.33L110 254.52L111.64 251.79C113.5 251.373 115.287 250.679 116.94 249.73C127.14 243.83 135.42 229.5 135.42 217.73C135.415 216.139 135.22 214.555 134.84 213.01L136.84 209.65Z" fill="#105140"/>
<path opacity="0.4" d="M136.84 209.65L127.09 204H127.02C123.69 202.12 119.1 202.4 114.02 205.33C103.81 211.22 95.54 225.55 95.54 237.33C95.54 243.22 97.6 247.33 100.93 249.33L110 254.52L111.64 251.79C113.5 251.373 115.287 250.679 116.94 249.73C127.14 243.83 135.42 229.5 135.42 217.73C135.415 216.139 135.22 214.555 134.84 213.01L136.84 209.65Z" fill="black"/>
<path d="M123.39 210.7C113.18 216.6 104.91 230.93 104.91 242.7C104.91 254.47 113.18 259.26 123.39 253.37C133.6 247.48 141.87 233.15 141.87 221.37C141.87 209.59 133.6 204.81 123.39 210.7Z" fill="#105140"/>
<path d="M116.17 245.52C115.98 245.52 115.88 245.41 115.88 245.24C115.9 245.052 115.954 244.869 116.04 244.7L116.97 242.61C117.032 242.405 117.154 242.224 117.32 242.09C117.458 242.027 117.608 241.993 117.76 241.99C118.592 241.94 119.413 241.776 120.2 241.5C121.246 241.148 122.252 240.685 123.2 240.12C124.675 239.321 125.969 238.224 127 236.9C127.773 235.898 128.204 234.675 128.23 233.41C128.23 231.2 126.88 230.88 124.18 232.41L121.55 234C121.12 234.24 120.82 234.33 120.64 234.25C120.46 234.17 120.37 233.93 120.37 233.53V232.7C120.356 232.347 120.45 231.998 120.64 231.7C120.881 231.375 121.192 231.108 121.55 230.92L124.16 229.41C125.206 228.841 126.093 228.019 126.74 227.02C127.282 226.182 127.58 225.208 127.6 224.21C127.6 222.07 126.093 221.87 123.08 223.61C121.227 224.666 119.558 226.017 118.14 227.61C118.007 227.76 117.859 227.898 117.7 228.02C117.641 228.048 117.575 228.055 117.511 228.041C117.448 228.026 117.391 227.991 117.35 227.94L116.46 226.94C116.41 226.894 116.371 226.838 116.343 226.776C116.316 226.715 116.301 226.648 116.3 226.58C116.32 226.351 116.419 226.135 116.58 225.97C117.466 224.862 118.472 223.856 119.58 222.97C120.87 221.919 122.245 220.975 123.69 220.15C124.995 219.338 126.434 218.766 127.94 218.46C128.414 218.345 128.907 218.334 129.386 218.429C129.864 218.524 130.316 218.722 130.71 219.01C131.065 219.352 131.339 219.77 131.512 220.232C131.685 220.694 131.753 221.189 131.71 221.68C131.687 222.781 131.443 223.866 130.99 224.87C130.507 226.029 129.83 227.097 128.99 228.03C129.422 227.885 129.883 227.853 130.331 227.935C130.778 228.017 131.198 228.211 131.55 228.5C131.858 228.859 132.092 229.275 132.238 229.725C132.384 230.175 132.439 230.649 132.4 231.12C132.324 233.337 131.546 235.473 130.18 237.22C128.503 239.47 126.361 241.332 123.9 242.68C120.38 244.74 117.803 245.687 116.17 245.52Z" fill="white"/>
<path d="M325.87 354.09L326.06 353.92C326.2 353.8 326.35 353.68 326.48 353.55L326.93 353.11L327.38 352.68C327.643 352.433 327.894 352.173 328.13 351.9L331.69 354.56L334.06 356.33C333.197 357.265 332.494 358.336 331.98 359.5C331.98 359.5 331.27 360.65 328.86 360.07C325.88 359.38 325.41 355 325.87 354.09Z" fill="#FFA8A7"/>
<path d="M291 352.87C288.28 349.71 290.7 344.46 293.34 337.65C296.24 330.16 300.72 317.43 300.72 317.43L332.53 310.86C332.53 310.86 366.42 310.21 369.53 316.69C372.05 321.88 349.73 329.69 346.53 329.97L326.94 331L324.88 332L311.12 349.41L291 352.87Z" fill="#105140"/>
<path d="M349.61 322C347.14 324.512 344.838 327.185 342.72 330C336.99 338 327.92 352.53 327.92 352.53C327.92 352.53 329.33 357.13 333.66 356.93C333.66 356.93 363.46 329.1 365.9 326.53C369.59 322.63 372.55 316.2 366.17 315.67C359.79 315.14 352.09 319.32 349.61 322Z" fill="#105140"/>
<path d="M342.56 330.16C342.56 330.16 347.88 322.38 353.39 319.16C353.39 319.16 347.91 320.24 339.61 330.34L342.56 330.16Z" fill="#105140"/>
<path opacity="0.1" d="M342.56 330.16C342.56 330.16 347.88 322.38 353.39 319.16C353.39 319.16 347.91 320.24 339.61 330.34L342.56 330.16Z" fill="black"/>
<path d="M346.18 340L344.09 340.4L346.03 347.57C346.03 347.57 347.91 347.39 348.56 347.43C349.507 347.205 350.419 346.852 351.27 346.38L350.77 342L348.47 339.6L346.18 340Z" fill="#FFA8A7"/>
<path d="M362.68 341.69C363.678 342.092 364.581 342.696 365.335 343.463C366.089 344.231 366.676 345.145 367.06 346.15C367.505 347.201 367.87 348.284 368.15 349.39C368.48 350.55 368.32 352.52 366.85 352.84C366.372 352.896 365.888 352.809 365.46 352.59C362.51 351.45 359.63 350.13 356.61 349.17C354.022 348.211 351.312 347.622 348.56 347.42C349.186 346.457 349.498 345.324 349.455 344.177C349.412 343.029 349.016 341.923 348.32 341.01C347.728 340.462 346.98 340.113 346.18 340.01C346.94 339.67 347.65 339.23 348.38 338.82C349.739 337.869 351.404 337.459 353.05 337.67C354.31 337.94 355.27 338.94 356.34 339.67C358.38 341 360.35 340.91 362.68 341.69Z" fill="#263238"/>
<path d="M295.29 346C297.92 345.19 302.12 344.47 314.58 343.83C327.04 343.19 344.09 340.39 344.09 340.39C346.99 343.18 346.03 347.56 346.03 347.56C346.03 347.56 323.9 354.56 316.69 355.49C305.21 356.97 301.25 356.86 296.07 355.75C290.25 354.5 286.58 348.67 295.29 346Z" fill="#105140"/>
<path d="M340.83 286.65L350.19 309.02L343.49 313.14L330.61 291.33L340.83 286.65Z" fill="#F28F8F"/>
<path d="M321.47 265.57C326.59 265.63 332.22 267.49 334.16 271.5L342.16 288C342.16 288 337.64 294.62 330.46 294.15L321.47 265.57Z" fill="#E0E0E0"/>
<path d="M287.43 300.34C287.49 299.47 288.74 295.22 290.08 290.64L299.8 294L297.19 302.23L289 310C287.226 307.112 286.662 303.641 287.43 300.34Z" fill="#FFA8A7"/>
<path d="M311 265.88C304.9 267.35 296.59 269.26 294.18 275.88C291.77 282.5 288.32 294.19 288.32 294.19C289.66 296.51 297.01 298.43 299.56 297.09L300.76 293.09V317.41C305.53 322.6 329.06 321.27 332.57 310.84V277.71C332.57 272.41 329.63 266.04 321.5 265.57L311 265.88Z" fill="#FAFAFA"/>
<path d="M300.73 293.11L303.79 283.48L300.73 297.42V293.11Z" fill="#E0E0E0"/>
<path d="M308.68 238.77C308.137 238.699 307.585 238.753 307.065 238.926C306.546 239.099 306.072 239.388 305.68 239.77C304.39 241.09 304.68 243.53 305.68 249.13L309.68 249.58L308.68 238.77Z" fill="#A89074"/>
<path d="M331.89 237.15C332.746 237.154 333.594 236.98 334.38 236.64C335.6 235.94 335.92 237.33 335.25 238.53C334.807 239.395 334.15 240.133 333.341 240.672C332.532 241.211 331.599 241.534 330.63 241.61C330.63 241.44 329.49 238.5 329.49 238.5L331.89 237.15Z" fill="#A89074"/>
<path d="M310.55 249.64C309.96 249.99 309.11 248.86 308.38 248.09C308.094 247.762 307.729 247.513 307.319 247.366C306.91 247.219 306.47 247.178 306.041 247.248C305.611 247.319 305.207 247.497 304.866 247.767C304.524 248.036 304.257 248.388 304.09 248.79C302.88 251.34 305.63 254.73 307.24 255.85C307.692 256.24 308.255 256.476 308.85 256.527C309.444 256.577 310.039 256.438 310.55 256.13L310.97 265.88C311.683 267.442 312.773 268.804 314.141 269.842C315.509 270.88 317.113 271.563 318.81 271.83C324.53 272.6 323.35 267.88 321.47 265.57V262C322.902 262.305 324.374 262.38 325.83 262.22C326.57 262.02 328.35 259.87 329.5 257.46C330.79 254.76 332.94 249.96 331.03 241.83C328.97 233.11 319.6 232.83 314.03 236.36C308.46 239.89 310.55 249.64 310.55 249.64Z" fill="#FFA8A7"/>
<path d="M310.55 250.63C310.25 250.63 309.12 248.76 308.38 248.09C307.38 247.16 308.68 238.77 308.68 238.77C308.68 238.77 307.68 235.58 309.68 233.47C311.68 231.36 315.6 231.71 318.46 231.61C321.964 231.629 325.435 230.932 328.66 229.56C332.72 227.8 333.02 227.56 333.52 229.37C334.02 231.18 334.22 235.23 331.8 237.96L330.48 240.11C330.48 240.11 329.25 241.11 325.48 241.61C321.71 242.11 315.25 240.04 314.48 239.93C313.38 239.78 313.15 240.84 312.56 243.74C312 246.29 311.55 250.61 310.55 250.63Z" fill="#A89074"/>
<path d="M308.69 239.42L305.11 237.5C305.228 237.262 305.392 237.05 305.592 236.876C305.793 236.702 306.026 236.57 306.278 236.487C306.531 236.404 306.797 236.372 307.062 236.393C307.326 236.415 307.584 236.488 307.82 236.61C308.297 236.878 308.653 237.319 308.814 237.842C308.976 238.364 308.932 238.929 308.69 239.42Z" fill="#A89074"/>
<path d="M321.46 262C321.46 262 316.16 260.93 314.31 260C313.221 259.429 312.329 258.544 311.75 257.46C312.031 258.548 312.528 259.568 313.21 260.46C314.56 262.19 321.46 263.46 321.46 263.46V262Z" fill="#F28F8F"/>
<path d="M321.63 249.44C321.622 249.648 321.553 249.849 321.432 250.018C321.311 250.187 321.143 250.316 320.949 250.39C320.754 250.464 320.543 250.48 320.34 250.434C320.137 250.389 319.952 250.285 319.807 250.135C319.663 249.986 319.566 249.797 319.528 249.592C319.491 249.388 319.514 249.177 319.595 248.986C319.676 248.794 319.812 248.631 319.985 248.516C320.159 248.401 320.362 248.34 320.57 248.34C320.712 248.343 320.852 248.373 320.982 248.43C321.112 248.486 321.229 248.568 321.328 248.67C321.426 248.773 321.504 248.893 321.555 249.025C321.607 249.157 321.633 249.298 321.63 249.44Z" fill="#263238"/>
<path d="M320.51 245.44L318.23 246.69C318.072 246.377 318.039 246.016 318.138 245.68C318.236 245.344 318.458 245.058 318.76 244.88C318.911 244.798 319.077 244.747 319.248 244.731C319.419 244.715 319.591 244.733 319.755 244.786C319.918 244.838 320.07 244.923 320.199 245.035C320.329 245.148 320.435 245.285 320.51 245.44Z" fill="#263238"/>
<path d="M321 256.54L323.43 257.46C323.376 257.622 323.29 257.772 323.178 257.9C323.065 258.029 322.928 258.133 322.774 258.208C322.62 258.283 322.453 258.326 322.282 258.334C322.111 258.343 321.941 258.318 321.78 258.26C321.453 258.13 321.188 257.878 321.043 257.557C320.897 257.237 320.882 256.872 321 256.54Z" fill="#F28F8F"/>
<path d="M331.1 246.32L329.03 244.72C329.128 244.581 329.253 244.463 329.398 244.374C329.543 244.285 329.704 244.226 329.872 244.201C330.041 244.175 330.212 244.185 330.377 244.227C330.541 244.27 330.695 244.346 330.83 244.45C331.106 244.667 331.289 244.983 331.339 245.331C331.389 245.679 331.304 246.033 331.1 246.32Z" fill="#263238"/>
<path d="M330.46 249.14C330.452 249.348 330.383 249.549 330.262 249.718C330.141 249.887 329.973 250.016 329.779 250.09C329.584 250.164 329.373 250.18 329.17 250.134C328.967 250.089 328.782 249.985 328.637 249.835C328.493 249.686 328.396 249.497 328.358 249.292C328.321 249.088 328.344 248.877 328.425 248.686C328.506 248.494 328.642 248.331 328.815 248.216C328.989 248.101 329.192 248.04 329.4 248.04C329.542 248.043 329.682 248.073 329.812 248.13C329.942 248.186 330.059 248.268 330.158 248.37C330.256 248.472 330.334 248.593 330.385 248.725C330.437 248.857 330.463 248.998 330.46 249.14Z" fill="#263238"/>
<path d="M325.46 249.01L324.46 255.33L327.96 254.92L325.46 249.01Z" fill="#F28F8F"/>
<path d="M361.94 320.78L340.39 308.34C340.201 308.232 339.987 308.175 339.77 308.175C339.553 308.175 339.339 308.232 339.15 308.34L301.36 330.16L323.52 343L361.94 320.78Z" fill="#37474F"/>
<path d="M323.32 341.13L311.7 334.43L345.68 314.81L357.36 321.48L323.32 341.13Z" fill="#263238"/>
<path d="M317.61 322.49L317.83 322.61L323.52 325.9L333.65 320.05L333.86 319.93L327.95 316.52L317.61 322.49Z" fill="#263238"/>
<path d="M317.83 322.61L323.52 325.9L333.65 320.05L327.95 316.76L317.83 322.61Z" fill="#263238"/>
<path d="M301.36 330.16V330.67C301.357 331.031 301.448 331.386 301.623 331.702C301.798 332.017 302.052 332.282 302.36 332.47L322.44 344.06C322.756 344.244 323.115 344.34 323.48 344.34C323.845 344.34 324.204 344.244 324.52 344.06L360.86 323.06C361.167 322.871 361.421 322.606 361.596 322.291C361.771 321.976 361.862 321.621 361.86 321.26V320.75L323.52 343L301.36 330.16Z" fill="#263238"/>
<path d="M323.52 343V344.38C323.872 344.376 324.217 344.28 324.52 344.1L360.86 323.1C361.167 322.911 361.421 322.646 361.596 322.331C361.771 322.016 361.862 321.661 361.86 321.3V320.79L323.52 343Z" fill="#263238"/>
<path d="M324.11 343.27C324.454 343.401 324.822 343.454 325.189 343.425C325.556 343.395 325.912 343.284 326.23 343.1L362.41 322.21C362.724 322.03 362.994 321.782 363.2 321.485C363.405 321.187 363.542 320.847 363.6 320.49L367.6 296.88C367.61 296.743 367.61 296.606 367.6 296.47C367.598 295.813 367.336 295.184 366.87 294.72L329.27 316.43C329.039 316.564 328.84 316.747 328.688 316.966C328.536 317.186 328.434 317.436 328.39 317.7L324.11 343.27Z" fill="#263238"/>
<path d="M323.52 343L323.77 343.14C323.88 343.203 323.994 343.259 324.11 343.31L328.39 317.74C328.434 317.476 328.536 317.226 328.688 317.006C328.84 316.787 329.039 316.604 329.27 316.47L366.87 294.76C366.716 294.617 366.549 294.49 366.37 294.38L328.7 316.09C328.468 316.223 328.268 316.406 328.114 316.626C327.96 316.845 327.856 317.096 327.81 317.36L323.52 343Z" fill="#455A64"/>
<path d="M344.48 321.46C345.049 319.486 346.356 317.807 348.13 316.77C349.88 315.77 351.08 316.22 350.82 317.77C350.251 319.744 348.944 321.423 347.17 322.46C345.42 323.51 344.22 323 344.48 321.46Z" fill="#37474F"/>
<path d="M297.19 302.21C297.19 302.21 303.68 327.21 306.42 329C309.16 330.79 314.26 332.1 316.7 333C319.14 333.9 320.25 335.13 319.83 335.47C319.41 335.81 315.89 336.18 314.67 336.61C313.45 337.04 315.03 339.01 317.73 341.1C320.43 343.19 322.73 343 322.43 344.39C322.13 345.78 316.11 347.17 311.03 344.19C305.95 341.21 304.41 337.19 301.38 333.78C298.35 330.37 291.43 316.2 289 310C289 310 289.23 298.48 293 299.21C296.77 299.94 297.19 302.21 297.19 302.21Z" fill="#FFA8A7"/>
<path d="M328.07 352.87C328.53 353.98 330.12 357.04 333.66 356.87L342.36 348.73L328.07 352.87Z" fill="#105140"/>
<path opacity="0.1" d="M328.07 352.87C328.53 353.98 330.12 357.04 333.66 356.87L342.36 348.73L328.07 352.87Z" fill="black"/>
<path d="M330.7 367.19C330.616 364.572 331.048 361.962 331.97 359.51C331.551 359.802 331.068 359.99 330.561 360.056C330.055 360.122 329.54 360.065 329.06 359.89C326.15 359.02 325.42 354.96 325.88 354.08C325.46 354.45 325.02 354.8 324.59 355.16C323.211 356.086 322.23 357.495 321.84 359.11C321.64 360.38 322.23 361.63 322.52 362.89C323.08 365.29 322.52 367.79 322.43 370.25C322.45 371.324 322.691 372.382 323.136 373.358C323.582 374.335 324.223 375.211 325.02 375.93C325.84 376.73 326.723 377.462 327.66 378.12C328.001 378.503 328.453 378.772 328.953 378.888C329.453 379.004 329.976 378.962 330.451 378.767C330.926 378.573 331.33 378.236 331.605 377.803C331.881 377.37 332.015 376.863 331.99 376.35C331.61 373.23 330.88 370.44 330.7 367.19Z" fill="#263238"/>
<path d="M334 356.35C333.73 356.86 333.49 357.35 333.28 357.84C333.53 357.36 333.77 356.86 334 356.35Z" fill="#37474F"/>
</svg>
