<svg width="51" height="65" viewBox="0 0 51 65" fill="none" xmlns="http://www.w3.org/2000/svg">
<rect x="1" y="1" width="43" height="43" rx="21.5" stroke="#1E1A19" stroke-width="2"/>
<path d="M9.59912 56.6013C9.59912 56.3962 9.56738 56.2131 9.50391 56.052C9.44531 55.886 9.33545 55.7371 9.17432 55.6052C9.01807 55.4685 8.7959 55.3367 8.50781 55.2097C8.22461 55.0779 7.8584 54.9412 7.40918 54.7996C6.91113 54.6433 6.44727 54.4675 6.01758 54.2722C5.58789 54.0769 5.20947 53.8499 4.88232 53.5911C4.56006 53.3323 4.30859 53.0344 4.12793 52.6975C3.94727 52.3557 3.85693 51.9602 3.85693 51.511C3.85693 51.0715 3.94971 50.6711 4.13525 50.3098C4.32568 49.9485 4.59424 49.6384 4.94092 49.3796C5.2876 49.116 5.69531 48.9133 6.16406 48.7717C6.6377 48.6301 7.16016 48.5593 7.73145 48.5593C8.52246 48.5593 9.20605 48.7034 9.78223 48.9915C10.3633 49.2795 10.8125 49.6702 11.1299 50.1633C11.4473 50.6565 11.606 51.2107 11.606 51.8259H9.59912C9.59912 51.4939 9.52832 51.2009 9.38672 50.947C9.25 50.6931 9.04004 50.4929 8.75684 50.3464C8.47852 50.2 8.12695 50.1267 7.70215 50.1267C7.29199 50.1267 6.9502 50.1877 6.67676 50.3098C6.4082 50.4319 6.20557 50.5979 6.06885 50.8079C5.93701 51.0178 5.87109 51.2522 5.87109 51.511C5.87109 51.7063 5.91748 51.8821 6.01025 52.0383C6.10303 52.1897 6.24219 52.3337 6.42773 52.4705C6.61328 52.6023 6.84277 52.7268 7.11621 52.844C7.39453 52.9563 7.7168 53.0686 8.08301 53.1809C8.66895 53.3567 9.18164 53.552 9.62109 53.7668C10.0654 53.9817 10.4341 54.2258 10.7271 54.4993C11.0249 54.7727 11.2471 55.0803 11.3936 55.4221C11.5449 55.7639 11.6206 56.1521 11.6206 56.5867C11.6206 57.0457 11.5303 57.4558 11.3496 57.8171C11.1689 58.1785 10.9102 58.4861 10.5732 58.74C10.2363 58.9939 9.83105 59.1868 9.35742 59.3186C8.88867 59.4504 8.36377 59.5164 7.78271 59.5164C7.26514 59.5164 6.75244 59.448 6.24463 59.3113C5.7417 59.1697 5.28516 58.9597 4.875 58.6814C4.46484 58.3982 4.1377 58.0417 3.89355 57.6121C3.64941 57.1775 3.52734 56.6697 3.52734 56.0886H5.54883C5.54883 56.4255 5.60254 56.7136 5.70996 56.9529C5.82227 57.1873 5.97852 57.3801 6.17871 57.5315C6.38379 57.678 6.62305 57.7854 6.89648 57.8538C7.16992 57.9221 7.46533 57.9563 7.78271 57.9563C8.19287 57.9563 8.52979 57.9001 8.79346 57.7878C9.06201 57.6707 9.26221 57.5095 9.39404 57.3044C9.53076 57.0994 9.59912 56.865 9.59912 56.6013ZM16.2788 57.9929C16.5522 57.9929 16.7964 57.9392 17.0112 57.8318C17.2261 57.7244 17.397 57.573 17.5239 57.3777C17.6558 57.1824 17.7266 56.9553 17.7363 56.6965H19.5601C19.5503 57.2336 19.3989 57.7146 19.106 58.1394C18.813 58.5642 18.4224 58.9011 17.9341 59.1501C17.4507 59.3943 16.9087 59.5164 16.3081 59.5164C15.6978 59.5164 15.1655 59.4138 14.7114 59.2087C14.2573 59.0037 13.8789 58.718 13.5762 58.3518C13.2783 57.9856 13.0537 57.5608 12.9023 57.0774C12.7559 56.594 12.6826 56.0764 12.6826 55.5247V55.2903C12.6826 54.7385 12.7559 54.2209 12.9023 53.7375C13.0537 53.2542 13.2783 52.8293 13.5762 52.4631C13.8789 52.0969 14.2573 51.8113 14.7114 51.6062C15.1655 51.4011 15.6953 51.2986 16.3008 51.2986C16.9404 51.2986 17.502 51.4231 17.9854 51.6721C18.4736 51.9211 18.8545 52.2727 19.1279 52.7268C19.4062 53.1809 19.5503 53.7156 19.5601 54.3308H17.7363C17.7266 54.0476 17.6631 53.7937 17.5459 53.5691C17.4287 53.3445 17.2627 53.1638 17.0479 53.0271C16.833 52.8904 16.5718 52.822 16.2642 52.822C15.937 52.822 15.6636 52.8904 15.4438 53.0271C15.229 53.1638 15.0605 53.3518 14.9385 53.5911C14.8213 53.8254 14.7383 54.0891 14.6895 54.3821C14.6455 54.6702 14.6235 54.9729 14.6235 55.2903V55.5247C14.6235 55.8469 14.6455 56.1545 14.6895 56.4475C14.7383 56.7405 14.8213 57.0042 14.9385 57.2385C15.0605 57.468 15.229 57.6511 15.4438 57.7878C15.6636 57.9246 15.9419 57.9929 16.2788 57.9929ZM22.7827 53.0637V59.3699H20.8491V51.4451H22.6802L22.7827 53.0637ZM25.1924 51.3938L25.1631 53.1956C25.0557 53.176 24.9336 53.1614 24.7969 53.1516C24.665 53.1418 24.5405 53.137 24.4233 53.137C24.1255 53.137 23.8643 53.1785 23.6396 53.2615C23.415 53.3396 23.2271 53.4543 23.0757 53.6057C22.9292 53.7571 22.8169 53.9426 22.7388 54.1624C22.6606 54.3772 22.6167 54.6213 22.6069 54.8948L22.1895 54.8435C22.1895 54.3406 22.2407 53.8743 22.3433 53.4446C22.4458 53.0149 22.5947 52.6389 22.79 52.3167C22.9854 51.9944 23.2295 51.7454 23.5225 51.5696C23.8203 51.3889 24.1621 51.2986 24.5479 51.2986C24.6553 51.2986 24.77 51.3083 24.8921 51.3279C25.019 51.3425 25.1191 51.3645 25.1924 51.3938ZM25.7051 55.488V55.3342C25.7051 54.7532 25.7881 54.2185 25.9541 53.7302C26.1201 53.2371 26.3618 52.8098 26.6792 52.4485C26.9966 52.0872 27.3848 51.8064 27.8438 51.6062C28.3027 51.4011 28.8252 51.2986 29.4111 51.2986C30.0068 51.2986 30.5342 51.4011 30.9932 51.6062C31.457 51.8064 31.8477 52.0872 32.165 52.4485C32.4824 52.8098 32.7241 53.2371 32.8901 53.7302C33.0562 54.2185 33.1392 54.7532 33.1392 55.3342V55.488C33.1392 56.0642 33.0562 56.5989 32.8901 57.092C32.7241 57.5803 32.4824 58.0076 32.165 58.3738C31.8477 58.7351 31.4595 59.0159 31.0005 59.2161C30.5415 59.4163 30.0166 59.5164 29.4258 59.5164C28.8398 59.5164 28.3149 59.4163 27.8511 59.2161C27.3872 59.0159 26.9966 58.7351 26.6792 58.3738C26.3618 58.0076 26.1201 57.5803 25.9541 57.092C25.7881 56.5989 25.7051 56.0642 25.7051 55.488ZM27.6387 55.3342V55.488C27.6387 55.8347 27.6729 56.1594 27.7412 56.4622C27.8096 56.7649 27.9146 57.031 28.0562 57.2605C28.1978 57.49 28.3809 57.6707 28.6055 57.8025C28.835 57.9294 29.1084 57.9929 29.4258 57.9929C29.7383 57.9929 30.0068 57.9294 30.2314 57.8025C30.4561 57.6707 30.6392 57.49 30.7808 57.2605C30.9272 57.031 31.0347 56.7649 31.103 56.4622C31.1714 56.1594 31.2056 55.8347 31.2056 55.488V55.3342C31.2056 54.9924 31.1714 54.6726 31.103 54.3748C31.0347 54.072 30.9272 53.8059 30.7808 53.5764C30.6392 53.342 30.4536 53.1589 30.2241 53.0271C29.9995 52.8904 29.7285 52.822 29.4111 52.822C29.0986 52.822 28.8301 52.8904 28.6055 53.0271C28.3809 53.1589 28.1978 53.342 28.0562 53.5764C27.9146 53.8059 27.8096 54.072 27.7412 54.3748C27.6729 54.6726 27.6387 54.9924 27.6387 55.3342ZM36.5962 48.1199V59.3699H34.6553V48.1199H36.5962ZM40.4927 48.1199V59.3699H38.5518V48.1199H40.4927Z" fill="#1E1A19"/>
<path d="M22.2929 36.077C22.6834 36.4675 23.3166 36.4675 23.7071 36.077L30.0711 29.713C30.4616 29.3225 30.4616 28.6893 30.0711 28.2988C29.6805 27.9083 29.0474 27.9083 28.6569 28.2988L23 33.9557L17.3431 28.2988C16.9526 27.9083 16.3195 27.9083 15.9289 28.2988C15.5384 28.6893 15.5384 29.3225 15.9289 29.713L22.2929 36.077ZM22 10.3699V35.3699H24V10.3699H22Z" fill="black"/>
</svg>
