<svg width="89" height="24" viewBox="0 0 89 24" fill="none" xmlns="http://www.w3.org/2000/svg">
<path d="M9.988 23.132L3.036 7.864C2.71333 7.13067 2.47867 6.57333 2.332 6.192C2.21467 5.81067 2.12667 5.488 2.068 5.224C2.03867 4.93067 1.98 4.608 1.892 4.256L0.264 4.344V1H10.56V3.816C9.944 3.84533 9.53333 4.02133 9.328 4.344C9.12267 4.66667 9.04933 5.092 9.108 5.62C9.16667 6.11867 9.29867 6.66133 9.504 7.248L11.792 12.88C12.0267 13.4373 12.2613 14.0093 12.496 14.596C12.7307 15.1827 12.9653 15.7693 13.2 16.356H13.244C13.4787 15.74 13.6987 15.124 13.904 14.508C14.1387 13.892 14.3587 13.276 14.564 12.66L16.456 7.292C16.72 6.55867 16.9547 5.972 17.16 5.532C17.3947 5.092 17.644 4.63733 17.908 4.168L15.18 4.344V1H23.54V3.816C22.8653 3.93333 22.264 4.31467 21.736 4.96C21.208 5.576 20.7533 6.28 20.372 7.072C19.9907 7.83467 19.6827 8.50933 19.448 9.096L13.816 23.132H9.988ZM25.4798 23V20.14C26.3011 20.14 26.8878 19.9787 27.2398 19.656C27.5918 19.3333 27.8118 18.8787 27.8998 18.292C28.0171 17.676 28.0758 16.9867 28.0758 16.224V8.832C28.0758 8.304 28.0904 7.71733 28.1198 7.072C28.1491 6.39733 28.1931 5.73733 28.2518 5.092C27.7824 5.12133 27.2251 5.15067 26.5798 5.18C25.9638 5.18 25.4944 5.19467 25.1718 5.224V1.88C26.5211 1.88 27.6651 1.80667 28.6038 1.66C29.5424 1.51333 30.2758 1.33733 30.8038 1.132C31.3611 0.926666 31.7424 0.735999 31.9478 0.559998H34.1038C34.1624 0.941332 34.1918 1.22 34.1918 1.396C34.1918 1.572 34.1918 1.748 34.1918 1.924C34.2211 2.07067 34.2798 2.34933 34.3678 2.76C34.9544 2.29067 35.6291 1.88 36.3918 1.528C37.1544 1.14666 37.9171 0.853332 38.6798 0.647999C39.4424 0.413332 40.1171 0.295999 40.7038 0.295999C43.4024 0.295999 45.3091 1.07333 46.4238 2.628C47.5678 4.15333 48.1398 6.61733 48.1398 10.02V15.916C48.1398 16.3267 48.1251 16.9133 48.0958 17.676C48.0664 18.4093 48.0224 19.1133 47.9638 19.788C48.4624 19.7293 48.9904 19.7 49.5478 19.7C50.1051 19.6707 50.5305 19.656 50.8238 19.656V23H39.2958V20.14C40.1171 20.14 40.7038 19.9787 41.0558 19.656C41.4371 19.3333 41.6718 18.8787 41.7598 18.292C41.8771 17.676 41.9358 16.9867 41.9358 16.224L41.8918 9.976C41.8918 8.06933 41.6131 6.66133 41.0558 5.752C40.5278 4.81333 39.6184 4.344 38.3278 4.344C37.5944 4.344 36.8611 4.50533 36.1278 4.828C35.4238 5.15067 34.8224 5.532 34.3238 5.972C34.3238 6.38267 34.3238 6.808 34.3238 7.248C34.3238 7.65867 34.3238 8.06933 34.3238 8.48V15.916C34.3238 16.3267 34.3091 16.9133 34.2798 17.676C34.2504 18.4093 34.2064 19.1133 34.1478 19.788C34.6171 19.7293 35.1304 19.7 35.6878 19.7C36.2744 19.6707 36.7144 19.656 37.0078 19.656V23H25.4798ZM53.5384 23V20.14C54.3597 20.14 54.9464 19.9787 55.2984 19.656C55.6504 19.3333 55.8704 18.8787 55.9584 18.292C56.0757 17.676 56.1344 16.9867 56.1344 16.224V8.832C56.1344 8.304 56.149 7.71733 56.1784 7.072C56.2077 6.39733 56.2517 5.73733 56.3104 5.092C55.841 5.12133 55.2837 5.15067 54.6384 5.18C54.0224 5.18 53.553 5.19467 53.2304 5.224V1.88C54.5797 1.88 55.7237 1.80667 56.6624 1.66C57.601 1.51333 58.3344 1.33733 58.8624 1.132C59.4197 0.926666 59.801 0.735999 60.0064 0.559998H62.1624C62.221 0.941332 62.2504 1.22 62.2504 1.396C62.2504 1.572 62.2504 1.748 62.2504 1.924C62.2797 2.07067 62.3384 2.34933 62.4264 2.76C63.013 2.29067 63.6877 1.88 64.4504 1.528C65.213 1.14666 65.9757 0.853332 66.7384 0.647999C67.501 0.413332 68.1757 0.295999 68.7624 0.295999C71.461 0.295999 73.3677 1.07333 74.4824 2.628C75.6264 4.15333 76.1984 6.61733 76.1984 10.02V15.916C76.1984 16.3267 76.1837 16.9133 76.1544 17.676C76.125 18.4093 76.081 19.1133 76.0224 19.788C76.521 19.7293 77.049 19.7 77.6064 19.7C78.1637 19.6707 78.589 19.656 78.8824 19.656V23H67.3544V20.14C68.1757 20.14 68.7624 19.9787 69.1144 19.656C69.4957 19.3333 69.7304 18.8787 69.8184 18.292C69.9357 17.676 69.9944 16.9867 69.9944 16.224L69.9504 9.976C69.9504 8.06933 69.6717 6.66133 69.1144 5.752C68.5864 4.81333 67.677 4.344 66.3864 4.344C65.653 4.344 64.9197 4.50533 64.1864 4.828C63.4824 5.15067 62.881 5.532 62.3824 5.972C62.3824 6.38267 62.3824 6.808 62.3824 7.248C62.3824 7.65867 62.3824 8.06933 62.3824 8.48V15.916C62.3824 16.3267 62.3677 16.9133 62.3384 17.676C62.309 18.4093 62.265 19.1133 62.2064 19.788C62.6757 19.7293 63.189 19.7 63.7464 19.7C64.333 19.6707 64.773 19.656 65.0664 19.656V23H53.5384ZM84.941 23.704C84.0023 23.704 83.225 23.3667 82.609 22.692C82.0223 22.0173 81.729 21.2107 81.729 20.272C81.729 19.3333 82.0516 18.5267 82.697 17.852C83.3423 17.1773 84.0903 16.84 84.941 16.84C85.8503 16.84 86.5983 17.1773 87.185 17.852C87.801 18.5267 88.109 19.3333 88.109 20.272C88.109 21.2107 87.8156 22.0173 87.229 22.692C86.6716 23.3667 85.909 23.704 84.941 23.704Z" fill="#105140"/>
</svg>
